<mxfile host="app.diagrams.net" modified="2023-03-23T19:47:08.701Z" agent="5.0 (Windows NT 10.0; Win64; x64) AppleWebKit/537.36 (KHTML, like Gecko) Chrome/111.0.0.0 Safari/537.36 Edg/111.0.1661.44" etag="jpvORotkyIit6oIwgJQX" version="21.0.10" type="github">
  <diagram id="6a731a19-8d31-9384-78a2-239565b7b9f0" name="Page-1">
    <mxGraphModel dx="1781" dy="616" grid="1" gridSize="10" guides="1" tooltips="1" connect="1" arrows="1" fold="1" page="1" pageScale="1" pageWidth="827" pageHeight="1169" background="none" math="0" shadow="0">
      <root>
        <mxCell id="0" />
        <mxCell id="1" parent="0" />
        <mxCell id="ulOZlzncEij44m-0XtQn-2258" value="" style="shape=mxgraph.cisco.servers.file_server;sketch=0;html=1;pointerEvents=1;dashed=0;fillColor=#036897;strokeColor=#ffffff;strokeWidth=2;verticalLabelPosition=bottom;verticalAlign=top;align=center;outlineConnect=0;" vertex="1" parent="1">
          <mxGeometry x="660" y="120" width="43" height="58" as="geometry" />
        </mxCell>
        <mxCell id="ulOZlzncEij44m-0XtQn-2259" value="" style="shape=mxgraph.cisco.servers.file_server;sketch=0;html=1;pointerEvents=1;dashed=0;fillColor=#036897;strokeColor=#ffffff;strokeWidth=2;verticalLabelPosition=bottom;verticalAlign=top;align=center;outlineConnect=0;" vertex="1" parent="1">
          <mxGeometry x="660" y="250" width="43" height="58" as="geometry" />
        </mxCell>
        <mxCell id="ulOZlzncEij44m-0XtQn-2260" value="&#xa;&lt;span style=&quot;color: rgba(0, 0, 0, 0); font-family: monospace; font-size: 0px; font-style: normal; font-variant-ligatures: normal; font-variant-caps: normal; font-weight: 400; letter-spacing: normal; orphans: 2; text-align: start; text-indent: 0px; text-transform: none; widows: 2; word-spacing: 0px; -webkit-text-stroke-width: 0px; background-color: rgb(251, 251, 251); text-decoration-thickness: initial; text-decoration-style: initial; text-decoration-color: initial; float: none; display: inline !important;&quot;&gt;%3CmxGraphModel%3E%3Croot%3E%3CmxCell%20id%3D%220%22%2F%3E%3CmxCell%20id%3D%221%22%20parent%3D%220%22%2F%3E%3CmxCell%20id%3D%222%22%20value%3D%22%22%20style%3D%22shape%3Dmxgraph.cisco.servers. file_server%3Bsketch%3D0%3Bhtml%3D1%3BpointerEvents%3D1%3Bdashed%3D0%3BfillColor%3D%23036897%3BstrokeColor%3D%23ffffff%3BstrokeWidth%3D2%3BverticalLabelPosition%3Dbottom%3BverticalAlign%3Dtop%3Balign%3Dcenter%3BoutlineConnect%3D0%3B%22%20vertex%3D%221%22%20%3%221%22 3parent%3D%20%3%22660E%22CmxGeometry%20x%3D%22370%22%20y%3D%2243%22%20width%3D%2258%22%20height%3D%22%22%2as%3D%3geometry%2%3F%3E%2C%3FmxCell%3E" style="shape=mxgraph.cisco.servers.file_server;sketch=0;html=1;pointerEvents=1;dashed=0;fillColor=#036897;strokeColor=#ffffff;strokeWidth=2;verticalLabelPosition=bottom;verticalAlign=top;align=center;outlineConnect=0;" vertex="1" parent="1">
          <mxGeometry x="658.5" y="377" width="43" height="58" as="geometry" />
        </mxCell>
        <mxCell id="ulOZlzncEij44m-0XtQn-2261" value="Serveur WEB" style="text;html=1;align=center;verticalAlign=middle;resizable=0;points=[];autosize=1;strokeColor=none;fillColor=none;" vertex="1" parent="1">
          <mxGeometry x="631.5" y="178" width="100" height="30" as="geometry" />
        </mxCell>
        <mxCell id="ulOZlzncEij44m-0XtQn-2262" value="Serveur de DonnÃ©es" style="text;html=1;align=center;verticalAlign=middle;resizable=0;points=[];autosize=1;strokeColor=none;fillColor=none;" vertex="1" parent="1">
          <mxGeometry x="616.5" y="308" width="130" height="30" as="geometry" />
        </mxCell>
        <mxCell id="ulOZlzncEij44m-0XtQn-2263" value="Serveur DNS" style="text;html=1;align=center;verticalAlign=middle;resizable=0;points=[];autosize=1;strokeColor=none;fillColor=none;" vertex="1" parent="1">
          <mxGeometry x="635" y="435" width="90" height="30" as="geometry" />
        </mxCell>
        <mxCell id="ulOZlzncEij44m-0XtQn-2264" value="&#xa;&lt;span style=&quot;color: rgba(0, 0, 0, 0); font-family: monospace; font-size: 0px; font-style: normal; font-variant-ligatures: normal; font-variant-caps: normal; font-weight: 400; letter-spacing: normal; orphans: 2; text-align: start; text-indent: 0px; text-transform: none; widows: 2; word-spacing: 0px; -webkit-text-stroke-width: 0px; background-color: rgb(251, 251, 251); text-decoration-thickness: initial; text-decoration-style: initial; text-decoration-color: initial; float: none; display: inline !important;&quot;&gt;%3CmxGraphModel%3E%3Croot%3E%3CmxCell%20id%3D%220%22%2F%3E%3CmxCell%20id%3D%221%22%20parent%3D%220%22%2F%3E%3CmxCell%20id%3D%222%22%20value%3D%22%22%20style%3D%22shape%3Dmxgraph.cisco.servers. file_server%3Bsketch%3D0%3Bhtml%3D1%3BpointerEvents%3D1%3Bdashed%3D0%3BfillColor%3D%23036897%3BstrokeColor%3D%23ffffff%3BstrokeWidth%3D2%3BverticalLabelPosition%3Dbottom%3BverticalAlign%3Dtop%3Balign%3Dcenter%3BoutlineConnect%3D0%3B%22%20vertex%3D%221%22%20%3%221%22 3parent%3D%20%3%22660E%22CmxGeometry%20x%3D%22370%22%20y%3D%2243%22%20width%3D%2258%22%20height%3D%22%22%2as%3D%3geometry%2%3F%3E%2C%3FmxCell%3E" style="shape=mxgraph.cisco.servers.file_server;sketch=0;html=1;pointerEvents=1;dashed=0;fillColor=#036897;strokeColor=#ffffff;strokeWidth=2;verticalLabelPosition=bottom;verticalAlign=top;align=center;outlineConnect=0;" vertex="1" parent="1">
          <mxGeometry x="658.5" y="510" width="43" height="58" as="geometry" />
        </mxCell>
        <mxCell id="ulOZlzncEij44m-0XtQn-2265" value="Serveur DHCP" style="text;html=1;align=center;verticalAlign=middle;resizable=0;points=[];autosize=1;strokeColor=none;fillColor=none;" vertex="1" parent="1">
          <mxGeometry x="625" y="570" width="100" height="30" as="geometry" />
        </mxCell>
        <mxCell id="ulOZlzncEij44m-0XtQn-2266" value="" style="endArrow=none;html=1;rounded=0;strokeWidth=5;" edge="1" parent="1">
          <mxGeometry width="50" height="50" relative="1" as="geometry">
            <mxPoint x="520" y="630" as="sourcePoint" />
            <mxPoint x="520" y="90" as="targetPoint" />
          </mxGeometry>
        </mxCell>
        <mxCell id="ulOZlzncEij44m-0XtQn-2267" value="" style="endArrow=none;html=1;rounded=0;strokeWidth=2;" edge="1" parent="1">
          <mxGeometry width="50" height="50" relative="1" as="geometry">
            <mxPoint x="520" y="150" as="sourcePoint" />
            <mxPoint x="660" y="150" as="targetPoint" />
          </mxGeometry>
        </mxCell>
        <mxCell id="ulOZlzncEij44m-0XtQn-2268" value="" style="endArrow=none;html=1;rounded=0;strokeWidth=2;" edge="1" parent="1">
          <mxGeometry width="50" height="50" relative="1" as="geometry">
            <mxPoint x="520" y="540" as="sourcePoint" />
            <mxPoint x="660" y="540" as="targetPoint" />
          </mxGeometry>
        </mxCell>
        <mxCell id="ulOZlzncEij44m-0XtQn-2269" value="" style="endArrow=none;html=1;rounded=0;strokeWidth=2;" edge="1" parent="1">
          <mxGeometry width="50" height="50" relative="1" as="geometry">
            <mxPoint x="520" y="405.5" as="sourcePoint" />
            <mxPoint x="660" y="405.5" as="targetPoint" />
          </mxGeometry>
        </mxCell>
        <mxCell id="ulOZlzncEij44m-0XtQn-2270" value="&#xa;&lt;span style=&quot;color: rgba(0, 0, 0, 0); font-family: monospace; font-size: 0px; font-style: normal; font-variant-ligatures: normal; font-variant-caps: normal; font-weight: 400; letter-spacing: normal; orphans: 2; text-align: start; text-indent: 0px; text-transform: none; widows: 2; word-spacing: 0px; -webkit-text-stroke-width: 0px; background-color: rgb(251, 251, 251); text-decoration-thickness: initial; text-decoration-style: initial; text-decoration-color: initial; float: none; display: inline !important;&quot;&gt;%3CmxGraphModel%3E%3Croot%3E%3CmxCell%20id%3D%220%22%2F%3E%3CmxCell%20id%3D%221%22%20parent%3D%220%22%2F%3E%3CmxCell%20id%3D%222%22%20value%3D%22%22%20style%3D%22endArrow%3Dnone%3Bhtml%3D1%3Brounded%3D0%3BstrokeWidth%3D2%3B%22%20edge%3D%221%22%20parent%3D%221%22%3E%3CmxGeometry%20width%3D%2250%22%20height%3D%2250%22%20relative%3D%221%22%20as%3D%22geometry%22%3E%3CmxPoint%20x%3D%22520%22% 20y%3D%22280%22%20as%3D%22sourcePoint%22%2F%3E%3CmxPoint%20x%3D%22660%22%20y%3D%22280%22%20as%3D%22targetPoint%22%2F%3E%3C%2FmxGeometry%3E%3C%2FmxCell%3E%3C%2Froot%3E%3C%2FmxGraphModel%3E" style="endArrow=none;html=1;rounded=0;strokeWidth=2;" edge="1" parent="1">
          <mxGeometry width="50" height="50" relative="1" as="geometry">
            <mxPoint x="520" y="280" as="sourcePoint" />
            <mxPoint x="660" y="280" as="targetPoint" />
          </mxGeometry>
        </mxCell>
        <mxCell id="ulOZlzncEij44m-0XtQn-2271" value="" style="image;html=1;image=img/lib/clip_art/networking/Switch_128x128.png" vertex="1" parent="1">
          <mxGeometry x="270" y="320" width="130" height="80" as="geometry" />
        </mxCell>
        <mxCell id="ulOZlzncEij44m-0XtQn-2272" value="&#xa;&lt;span style=&quot;color: rgba(0, 0, 0, 0); font-family: monospace; font-size: 0px; font-style: normal; font-variant-ligatures: normal; font-variant-caps: normal; font-weight: 400; letter-spacing: normal; orphans: 2; text-align: start; text-indent: 0px; text-transform: none; widows: 2; word-spacing: 0px; -webkit-text-stroke-width: 0px; background-color: rgb(251, 251, 251); text-decoration-thickness: initial; text-decoration-style: initial; text-decoration-color: initial; float: none; display: inline !important;&quot;&gt;%3CmxGraphModel%3E%3Croot%3E%3CmxCell%20id%3D%220%22%2F%3E%3CmxCell%20id%3D%221%22%20parent%3D%220%22%2F%3E%3CmxCell%20id%3D%222%22%20value%3D%22%22%20style%3D%22image%3Bhtml%3D1%3Bimage %3Dimg%2Flib%2Fclip_art%2Fnetworking%2FSwitch_128x128.png%22%20vertex%3D%221%22%20parent%3D%221%22%3E%3CmxGeometry%20x%3D%22270%22%20y%3D%22308%22%20width%3D%22130%22%20height%3D%2280%22%20as%3D%22geometry%22% 2F%3E%3C%2FmxCell%3E%3C%2Froot%3E%3C%2FmxGraphModel%3E" style="image;html=1;image=img/lib/clip_art/networking/Switch_128x128.png" vertex="1" parent="1">
          <mxGeometry x="270" y="308" width="130" height="80" as="geometry" />
        </mxCell>
        <mxCell id="ulOZlzncEij44m-0XtQn-2274" value="&#xa;&lt;span style=&quot;color: rgba(0, 0, 0, 0); font-family: monospace; font-size: 0px; font-style: normal; font-variant-ligatures: normal; font-variant-caps: normal; font-weight: 400; letter-spacing: normal; orphans: 2; text-align: start; text-indent: 0px; text-transform: none; widows: 2; word-spacing: 0px; -webkit-text-stroke-width: 0px; background-color: rgb(251, 251, 251); text-decoration-thickness: initial; text-decoration-style: initial; text-decoration-color: initial; float: none; display: inline !important;&quot;&gt;%3CmxGraphModel%3E%3Croot%3E%3CmxCell%20id%3D%220%22%2F%3E%3CmxCell%20id%3D%221%22%20parent%3D%220%22%2F%3E%3CmxCell%20id%3D%222%22%20value%3D%22%22%20style%3D%22endArrow%3Dnone%3Bhtml%3D1%3Brounded%3D0%3BstrokeWidth%3D2%3B%22%20edge%3D%221%22%20parent%3D%221%22%3E%3CmxGeometry%20width%3D%2250%22%20height%3D%2250%22%20relative%3D%221%22%20as%3D%22geometry%22%3E%3CmxPoint%20x%3D%22520%22% 20y%3D%22280%22%20as%3D%22sourcePoint%22%2F%3E%3CmxPoint%20x%3D%22660%22%20y%3D%22280%22%20as%3D%22targetPoint%22%2F%3E%3C%2FmxGeometry%3E%3C%2FmxCell%3E%3C%2Froot%3E%3C%2FmxGraphModel%3E" style="endArrow=none;html=1;rounded=0;strokeWidth=2;" edge="1" parent="1">
          <mxGeometry width="50" height="50" relative="1" as="geometry">
            <mxPoint x="400" y="360" as="sourcePoint" />
            <mxPoint x="520" y="361" as="targetPoint" />
          </mxGeometry>
        </mxCell>
        <mxCell id="ulOZlzncEij44m-0XtQn-2275" value="&#xa;&lt;span style=&quot;color: rgba(0, 0, 0, 0); font-family: monospace; font-size: 0px; font-style: normal; font-variant-ligatures: normal; font-variant-caps: normal; font-weight: 400; letter-spacing: normal; orphans: 2; text-align: start; text-indent: 0px; text-transform: none; widows: 2; word-spacing: 0px; -webkit-text-stroke-width: 0px; background-color: rgb(251, 251, 251); text-decoration-thickness: initial; text-decoration-style: initial; text-decoration-color: initial; float: none; display: inline !important;&quot;&gt;%3CmxGraphModel%3E%3Croot%3E%3CmxCell%20id%3D%220%22%2F%3E%3CmxCell%20id%3D%221%22%20parent%3D%220%22%2F%3E%3CmxCell%20id%3D%222%22%20value%3D%22%26%2310%3B%26lt%3Bspan%20style%3D%26quot%3Bcolor%3A%20rgba(0%2C%200%2C%200%2C%200)%3B%20font-family%3A%20monospace%3B%20font-size%3A%200px%3B%20font-style%3A%20normal%3B%20font-variant-ligatures%3A%20normal%3B%20font-variant-caps%3A%20normal%3B%20font-weight%3A%20400%3B%20letter-spacing%3A% 20normal%3B%20orphans%3A%202%3B%20text-align%3A%20start%3B%20text-indent%3A%200px%3B%20text-transform%3A%20none%3B%20widows%3A%202%3B%20word-spacing%3A%200px%3B%20-webkit-text-stroke-width%3A%200px%3B%20background-color%3A%20rgb(251%2C%20251%2C%20251)%3B%20text-decoration-thickness%3A%20initial%3B%20text-decoration-style%3A%20initial%3B%20text-decoration-color%3A%20initial%3B%20float%3A%20none%3B%20display%3A%20inline%20! important%3B%26quot%3B%26gt%3B%253CmxGraphModel%253E%253Croot%253E%253CmxCell%2520id%253D%25220%2522%252F%253E%253CmxCell%2520id%253D%25221%2522%2520parent%253D%25220%2522%252F%253E%253CmxCell%2520id%253D%25222%2522%2520value%253D%2522%2522%2520style%253D%2522image%253Bhtml%253D1%253Bimage%20%253Dimg%252Flib%252Fclip_art%252Fnetworking%252FSwitch_128x128. png%2522%2520vertex%253D%25221%2522%2520parent%253D%25221%2522%253E%253CmxGeometry%2520x%253D%2522270%2522%2520y%253D%2522308%2522%2520width%253D%2522130%2522%2520height%253D%252280height%2522D%2520&amp;amp;253&amp;amp;2522&amp;amp;2522&amp;amp;25d&amp;amp;202d&amp;amp;253width%253%252d%253d%253d&amp;amp;252height%253D%253&amp;amp;252width%253d%22height%20&amp;amp;3height%22D%3&amp;amp;3height%1D%3&amp;amp;3height%2&amp;amp;2&amp;amp;2height%2D%128%128%22as%20D%3geometry%221%22%20F%3E%221C%22FmxCell%3E%3C%20Froot%3E" style="image;html=1;image=img/lib/clip_art/networking/Switch_128x128.png" vertex="1" parent="1">
          <mxGeometry x="90" y="98" width="90" height="80" as="geometry" />
        </mxCell>
        <mxCell id="ulOZlzncEij44m-0XtQn-2276" value="&#xa;&lt;span style=&quot;color: rgba(0, 0, 0, 0); font-family: monospace; font-size: 0px; font-style: normal; font-variant-ligatures: normal; font-variant-caps: normal; font-weight: 400; letter-spacing: normal; orphans: 2; text-align: start; text-indent: 0px; text-transform: none; widows: 2; word-spacing: 0px; -webkit-text-stroke-width: 0px; background-color: rgb(251, 251, 251); text-decoration-thickness: initial; text-decoration-style: initial; text-decoration-color: initial; float: none; display: inline !important;&quot;&gt;%3CmxGraphModel%3E%3Croot%3E%3CmxCell%20id%3D%220%22%2F%3E%3CmxCell%20id%3D%221%22%20parent%3D%220%22%2F%3E%3CmxCell%20id%3D%222%22%20value%3D%22%26%2310%3B%26lt%3Bspan%20style%3D%26quot%3Bcolor%3A%20rgba(0%2C%200%2C%200%2C%200)%3B%20font-family%3A%20monospace%3B%20font-size%3A%200px%3B%20font-style%3A%20normal%3B%20font-variant-ligatures%3A%20normal%3B%20font-variant-caps%3A%20normal%3B%20font-weight%3A%20400%3B%20letter-spacing%3A% 20normal%3B%20orphans%3A%202%3B%20text-align%3A%20start%3B%20text-indent%3A%200px%3B%20text-transform%3A%20none%3B%20widows%3A%202%3B%20word-spacing%3A%200px%3B%20-webkit-text-stroke-width%3A%200px%3B%20background-color%3A%20rgb(251%2C%20251%2C%20251)%3B%20text-decoration-thickness%3A%20initial%3B%20text-decoration-style%3A%20initial%3B%20text-decoration-color%3A%20initial%3B%20float%3A%20none%3B%20display%3A%20inline%20! important%3B%26quot%3B%26gt%3B%253CmxGraphModel%253E%253Croot%253E%253CmxCell%2520id%253D%25220%2522%252F%253E%253CmxCell%2520id%253D%25221%2522%2520parent%253D%25220%2522%252F%253E%253CmxCell%2520id%253D%25222%2522%2520value%253D%2522%2522%2520style%253D%2522image%253Bhtml%253D1%253Bimage%20%253Dimg%252Flib%252Fclip_art%252Fnetworking%252FSwitch_128x128. png%2522%2520vertex%253D%25221%2522%2520parent%253D%25221%2522%253E%253CmxGeometry%2520x%253D%2522270%2522%2520y%253D%2522308%2522%2520width%253D%2522130%2522%2520height%253D%252280height%2522D%2520&amp;amp;253&amp;amp;2522&amp;amp;2522&amp;amp;25d&amp;amp;202d&amp;amp;253width%253%252d%253d%253d&amp;amp;252height%253D%253&amp;amp;252width%253d%22height%20&amp;amp;3height%22D%3&amp;amp;3height%1D%3&amp;amp;3height%2&amp;amp;2&amp;amp;2height%2D%128%128%22as%20D%3geometry%221%22%20F%3E%221C%22FmxCell%3E%3C%20Froot%3E" style="image;html=1;image=img/lib/clip_art/networking/Switch_128x128.png" vertex="1" parent="1">
          <mxGeometry x="90" y="230" width="90" height="80" as="geometry" />
        </mxCell>
        <mxCell id="ulOZlzncEij44m-0XtQn-2277" value="&#xa;&lt;span style=&quot;color: rgba(0, 0, 0, 0); font-family: monospace; font-size: 0px; font-style: normal; font-variant-ligatures: normal; font-variant-caps: normal; font-weight: 400; letter-spacing: normal; orphans: 2; text-align: start; text-indent: 0px; text-transform: none; widows: 2; word-spacing: 0px; -webkit-text-stroke-width: 0px; background-color: rgb(251, 251, 251); text-decoration-thickness: initial; text-decoration-style: initial; text-decoration-color: initial; float: none; display: inline !important;&quot;&gt;%3CmxGraphModel%3E%3Croot%3E%3CmxCell%20id%3D%220%22%2F%3E%3CmxCell%20id%3D%221%22%20parent%3D%220%22%2F%3E%3CmxCell%20id%3D%222%22%20value%3D%22%26%2310%3B%26lt%3Bspan%20style%3D%26quot%3Bcolor%3A%20rgba(0%2C%200%2C%200%2C%200)%3B%20font-family%3A%20monospace%3B%20font-size%3A%200px%3B%20font-style%3A%20normal%3B%20font-variant-ligatures%3A%20normal%3B%20font-variant-caps%3A%20normal%3B%20font-weight%3A%20400%3B%20letter-spacing%3A% 20normal%3B%20orphans%3A%202%3B%20text-align%3A%20start%3B%20text-indent%3A%200px%3B%20text-transform%3A%20none%3B%20widows%3A%202%3B%20word-spacing%3A%200px%3B%20-webkit-text-stroke-width%3A%200px%3B%20background-color%3A%20rgb(251%2C%20251%2C%20251)%3B%20text-decoration-thickness%3A%20initial%3B%20text-decoration-style%3A%20initial%3B%20text-decoration-color%3A%20initial%3B%20float%3A%20none%3B%20display%3A%20inline%20! important%3B%26quot%3B%26gt%3B%253CmxGraphModel%253E%253Croot%253E%253CmxCell%2520id%253D%25220%2522%252F%253E%253CmxCell%2520id%253D%25221%2522%2520parent%253D%25220%2522%252F%253E%253CmxCell%2520id%253D%25222%2522%2520id%253%2522id%2526value%252310D%253%2526%253%2520B%253lt%2526Bspan%253style%253D%2520quot%0Bcolor%252A%25200rgba(252%25200C%252%25200C%253%2520C%253)%2520B%253font-family%2520A%253monospace%25200B%253font-size%2520A%253px%2520B%253font-style%2520A% 253normal%2520B%253font-variant-ligatures%2520A%253normal%2520B%253font-variant-caps%2520A%253normal%2520400B%253font-weight%2520A%253%25B%2020letter-spacing%253A%2520%253normal%25202B%253orphans%2520A%253%2520B%253text-align%2520A; 253A %25200start%253B%2520text-indent%253A%2520px%253B%2520text-transform%253A%25202none%253B%2520widows%253A%25200%253B%2520word-spacing%253A%25200px%253B%2520-webkit-text-stroke-width%253A%2520px%251B%252background-color% 2520251A%252rgb(2520251%253C%2520%253C%2520)%253B%2520text-decoration-thickness%253A%2520initial%253B%2520text-decoration-style%253A%2520initial%253B%2520text-decoration-color%253A%2520initial%253B%2520float%253A%2520none%2520B%20display%253A%2526inline%253! %2526important%253B%25253quot%25253B%25253gt%25253B%25253CmxGraphModel%252520E%25253Croot%2525220E%252522CmxCell%25252id%25253D%25253%252520%25253F%2525221E%252522CmxCell%252520id%25253D%2525220%252522%25252parent%25253D%25253%252520D% %25253%2525222F%252522E%252520CmxCell%25253id%252522D%252522%252520%25253value%252522D%25253%25253%1style%25253D%2520image%25253Bhtml%25252D25252%25252Bimage%25252%128Dimg%128Flib%20Fclip_art%252522Fnetworking%252520FSwitch_ 25253x2525221. %252522png%252520%25253vertex%2525221D%252522%25253%25253parent%252520D%25253%252522270%252522E%252520CmxGeometry%25253x%252522308D%252522%252520%25253y%252522130D%252522%252520%25253width%25252280D%252522%252520%26height%3D%3D%253D%26D%3D%3D%2522D%26D%3D%3D%2522%26D%3D%3D%25D%26d%3d%3d%202d%26d%3d%3d%253d%25253d%25252&amp;amp;25253D%25253%26D%3D%3D%252D%25253D%25253D%26D%3D%3D%252D%25253D%2522D%2520D%26D%3D%3&amp;amp;3D%2522D%253D%26height%3D%3%3amp%251Bamp%253B26%3amp%3Bamp%3B252%26amp%3Bamp%3B2%26amp%3Bamp%3B2d%252amp%25128Bamp%25128B2522d%2520amp%253Bamp%25221B2522width%2520%253d%25221d%2522d%253amp%253Bamp%2520B253height%22D%20%3amp%22Bamp% 3B3width%1d%3height%3%2amp%2Bamp%2B2height%128D%128%22amp%20Bamp%3B221height%22D%20%3amp%221Bamp%22B3height%3%20amp%3Bamp%2290B22%20amp%3Bamp%22370B22height%20D%3%2290%22%20%3%2280%22%20%3%22%22as%2D%3geometry%3%2%3F%3E%2C%3FmxCell%3E" style="image;html=1;image=img/lib/clip_art/networking/Switch_128x128.png" vertex="1" parent="1">
          <mxGeometry x="90" y="370" width="90" height="80" as="geometry" />
        </mxCell>
        <mxCell id="ulOZlzncEij44m-0XtQn-2278" value="&#xa;&lt;span style=&quot;color: rgba(0, 0, 0, 0); font-family: monospace; font-size: 0px; font-style: normal; font-variant-ligatures: normal; font-variant-caps: normal; font-weight: 400; letter-spacing: normal; orphans: 2; text-align: start; text-indent: 0px; text-transform: none; widows: 2; word-spacing: 0px; -webkit-text-stroke-width: 0px; background-color: rgb(251, 251, 251); text-decoration-thickness: initial; text-decoration-style: initial; text-decoration-color: initial; float: none; display: inline !important;&quot;&gt;%3CmxGraphModel%3E%3Croot%3E%3CmxCell%20id%3D%220%22%2F%3E%3CmxCell%20id%3D%221%22%20parent%3D%220%22%2F%3E%3CmxCell%20id%3D%222%22%20value%3D%22%26%2310%3B%26lt%3Bspan%20style%3D%26quot%3Bcolor%3A%20rgba(0%2C%200%2C%200%2C%200)%3B%20font-family%3A%20monospace%3B%20font-size%3A%200px%3B%20font-style%3A%20normal%3B%20font-variant-ligatures%3A%20normal%3B%20font-variant-caps%3A%20normal%3B%20font-weight%3A%20400%3B%20letter-spacing%3A% 20normal%3B%20orphans%3A%202%3B%20text-align%3A%20start%3B%20text-indent%3A%200px%3B%20text-transform%3A%20none%3B%20widows%3A%202%3B%20word-spacing%3A%200px%3B%20-webkit-text-stroke-width%3A%200px%3B%20background-color%3A%20rgb(251%2C%20251%2C%20251)%3B%20text-decoration-thickness%3A%20initial%3B%20text-decoration-style%3A%20initial%3B%20text-decoration-color%3A%20initial%3B%20float%3A%20none%3B%20display%3A%20inline%20! important%3B%26quot%3B%26gt%3B%253CmxGraphModel%253E%253Croot%253E%253CmxCell%2520id%253D%25220%2522%252F%253E%253CmxCell%2520id%253D%25221%2522%2520parent%253D%25220%2522%252F%253E%253CmxCell%2520id%253D%25222%2522%2520value%253D%2522%2522%2520style%253D%2522image%253Bhtml%253D1%253Bimage%20%253Dimg%252Flib%252Fclip_art%252Fnetworking%252FSwitch_128x128. png%2522%2520vertex%253D%25221%2522%2520parent%253D%25221%2522%253E%253CmxGeometry%2520x%253D%2522270%2522%2520y%253D%2522308%2522%2520width%253D%2522130%2522%2520height%253D%252280height%2522D%2520&amp;amp;253&amp;amp;2522&amp;amp;2522&amp;amp;25d&amp;amp;202d&amp;amp;253width%253%252d%253d%253d&amp;amp;252height%253D%253&amp;amp;252width%253d%22height%20&amp;amp;3height%22D%3&amp;amp;3height%1D%3&amp;amp;3height%2&amp;amp;2&amp;amp;2height%2D%128%128%22as%20D%3geometry%221%22%20F%3E%221C%22FmxCell%3E%3C%20Froot%3E" style="image;html=1;image=img/lib/clip_art/networking/Switch_128x128.png" vertex="1" parent="1">
          <mxGeometry x="90" y="510" width="90" height="80" as="geometry" />
        </mxCell>
        <mxCell id="ulOZlzncEij44m-0XtQn-2279" value="&#xa;&lt;span style=&quot;color: rgba(0, 0, 0, 0); font-family: monospace; font-size: 0px; font-style: normal; font-variant-ligatures: normal; font-variant-caps: normal; font-weight: 400; letter-spacing: normal; orphans: 2; text-align: start; text-indent: 0px; text-transform: none; widows: 2; word-spacing: 0px; -webkit-text-stroke-width: 0px; background-color: rgb(251, 251, 251); text-decoration-thickness: initial; text-decoration-style: initial; text-decoration-color: initial; float: none; display: inline !important;&quot;&gt;%3CmxGraphModel%3E%3Croot%3E%3CmxCell%20id%3D%220%22%2F%3E%3CmxCell%20id%3D%221%22%20parent%3D%220%22%2F%3E%3CmxCell%20id%3D%222%22%20value%3D%22%26%2310%3B%26lt%3Bspan%20style%3D%26quot%3Bcolor%3A%20rgba(0%2C%200%2C%200%2C%200)%3B%20font-family%3A%20monospace%3B%20font-size%3A%200px%3B%20font-style%3A%20normal%3B%20font-variant-ligatures%3A%20normal%3B%20font-variant-caps%3A%20normal%3B%20font-weight%3A%20400%3B%20letter-spacing%3A% 20normal%3B%20orphans%3A%202%3B%20text-align%3A%20start%3B%20text-indent%3A%200px%3B%20text-transform%3A%20none%3B%20widows%3A%202%3B%20word-spacing%3A%200px%3B%20-webkit-text-stroke-width%3A%200px%3B%20background-color%3A%20rgb(251%2C%20251%2C%20251)%3B%20text-decoration-thickness%3A%20initial%3B%20text-decoration-style%3A%20initial%3B%20text-decoration-color%3A%20initial%3B%20float%3A%20none%3B%20display%3A%20inline%20! important%3B%26quot%3B%26gt%3B%253CmxGraphModel%253E%253Croot%253E%253CmxCell%2520id%253D%25220%2522%252F%253E%253CmxCell%2520id%253D%25221%2522%2520parent%253D%25220%2522%252F%253E%253CmxCell%2520id%253D%25222%2522%2520value%253D%2522%2522%2520style%253D%2522image%253Bhtml%253D1%253Bimage%20%253Dimg%252Flib%252Fclip_art%252Fnetworking%252FSwitch_128x128. png%2522%2520vertex%253D%25221%2522%2520parent%253D%25221%2522%253E%253CmxGeometry%2520x%253D%2522270%2522%2520y%253D%2522308%2522%2520width%253D%2522130%2522%2520height%253D%252280height%2522D%2520&amp;amp;253&amp;amp;2522&amp;amp;2522&amp;amp;25d&amp;amp;202d&amp;amp;253width%253%252d%253d%253d&amp;amp;252height%253D%253&amp;amp;252width%253d%22height%20&amp;amp;3height%22D%3&amp;amp;3height%1D%3&amp;amp;3height%2&amp;amp;2&amp;amp;2height%2D%128%128%22as%20D%3geometry%221%22%20F%3E%221C%22FmxCell%3E%3C%20Froot%3E" style="image;html=1;image=img/lib/clip_art/networking/Switch_128x128.png" vertex="1" parent="1">
          <mxGeometry x="90" y="650" width="90" height="80" as="geometry" />
        </mxCell>
        <mxCell id="ulOZlzncEij44m-0XtQn-2280" value="" style="endArrow=none;html=1;rounded=0;exitX=1;exitY=0.5;exitDx=0;exitDy=0;" edge="1" parent="1" source="ulOZlzncEij44m-0XtQn-2277">
          <mxGeometry width="50" height="50" relative="1" as="geometry">
            <mxPoint x="220" y="410" as="sourcePoint" />
            <mxPoint x="270" y="360" as="targetPoint" />
          </mxGeometry>
        </mxCell>
        <mxCell id="ulOZlzncEij44m-0XtQn-2281" value="" style="endArrow=none;html=1;rounded=0;exitX=1;exitY=0.663;exitDx=0;exitDy=0;exitPerimeter=0;" edge="1" parent="1" source="ulOZlzncEij44m-0XtQn-2276">
          <mxGeometry width="50" height="50" relative="1" as="geometry">
            <mxPoint x="180" y="388" as="sourcePoint" />
            <mxPoint x="270" y="338" as="targetPoint" />
          </mxGeometry>
        </mxCell>
        <mxCell id="ulOZlzncEij44m-0XtQn-2282" value="" style="endArrow=none;html=1;rounded=0;exitX=0.989;exitY=0.625;exitDx=0;exitDy=0;exitPerimeter=0;" edge="1" parent="1" source="ulOZlzncEij44m-0XtQn-2275">
          <mxGeometry width="50" height="50" relative="1" as="geometry">
            <mxPoint x="210" y="370" as="sourcePoint" />
            <mxPoint x="300" y="320" as="targetPoint" />
          </mxGeometry>
        </mxCell>
        <mxCell id="ulOZlzncEij44m-0XtQn-2283" value="" style="endArrow=none;html=1;rounded=0;exitX=1;exitY=0.5;exitDx=0;exitDy=0;" edge="1" parent="1" source="ulOZlzncEij44m-0XtQn-2278">
          <mxGeometry width="50" height="50" relative="1" as="geometry">
            <mxPoint x="210" y="438" as="sourcePoint" />
            <mxPoint x="300" y="388" as="targetPoint" />
          </mxGeometry>
        </mxCell>
        <mxCell id="ulOZlzncEij44m-0XtQn-2284" value="" style="endArrow=none;html=1;rounded=0;exitX=1;exitY=0.5;exitDx=0;exitDy=0;" edge="1" parent="1" source="ulOZlzncEij44m-0XtQn-2279">
          <mxGeometry width="50" height="50" relative="1" as="geometry">
            <mxPoint x="260" y="431" as="sourcePoint" />
            <mxPoint x="350" y="381" as="targetPoint" />
          </mxGeometry>
        </mxCell>
        <mxCell id="ulOZlzncEij44m-0XtQn-2285" value="" style="endArrow=none;html=1;rounded=0;entryX=0;entryY=0.5;entryDx=0;entryDy=0;strokeWidth=4;" edge="1" parent="1" target="ulOZlzncEij44m-0XtQn-2276">
          <mxGeometry width="50" height="50" relative="1" as="geometry">
            <mxPoint x="-440" y="270" as="sourcePoint" />
            <mxPoint y="260" as="targetPoint" />
            <Array as="points">
              <mxPoint x="-80" y="270" />
            </Array>
          </mxGeometry>
        </mxCell>
        <mxCell id="ulOZlzncEij44m-0XtQn-2286" value="" style="endArrow=none;html=1;rounded=0;entryX=0;entryY=0.5;entryDx=0;entryDy=0;strokeWidth=4;" edge="1" parent="1">
          <mxGeometry width="50" height="50" relative="1" as="geometry">
            <mxPoint x="-440" y="410" as="sourcePoint" />
            <mxPoint x="100" y="409.5" as="targetPoint" />
          </mxGeometry>
        </mxCell>
        <mxCell id="ulOZlzncEij44m-0XtQn-2287" value="" style="endArrow=none;html=1;rounded=0;entryX=0;entryY=0.5;entryDx=0;entryDy=0;strokeWidth=4;" edge="1" parent="1">
          <mxGeometry width="50" height="50" relative="1" as="geometry">
            <mxPoint x="-440" y="150" as="sourcePoint" />
            <mxPoint x="100" y="148.5" as="targetPoint" />
          </mxGeometry>
        </mxCell>
        <mxCell id="ulOZlzncEij44m-0XtQn-2288" value="" style="endArrow=none;html=1;rounded=0;entryX=0;entryY=0.5;entryDx=0;entryDy=0;strokeWidth=4;" edge="1" parent="1">
          <mxGeometry width="50" height="50" relative="1" as="geometry">
            <mxPoint x="-440" y="690" as="sourcePoint" />
            <mxPoint x="90" y="689.5" as="targetPoint" />
          </mxGeometry>
        </mxCell>
        <mxCell id="ulOZlzncEij44m-0XtQn-2289" value="" style="endArrow=none;html=1;rounded=0;entryX=0;entryY=0.5;entryDx=0;entryDy=0;strokeWidth=4;" edge="1" parent="1">
          <mxGeometry width="50" height="50" relative="1" as="geometry">
            <mxPoint x="-440" y="550" as="sourcePoint" />
            <mxPoint x="90" y="549.5" as="targetPoint" />
          </mxGeometry>
        </mxCell>
        <mxCell id="ulOZlzncEij44m-0XtQn-2290" value="&#xa;&lt;span style=&quot;color: rgba(0, 0, 0, 0); font-family: monospace; font-size: 0px; font-style: normal; font-variant-ligatures: normal; font-variant-caps: normal; font-weight: 400; letter-spacing: normal; orphans: 2; text-align: start; text-indent: 0px; text-transform: none; widows: 2; word-spacing: 0px; -webkit-text-stroke-width: 0px; background-color: rgb(251, 251, 251); text-decoration-thickness: initial; text-decoration-style: initial; text-decoration-color: initial; float: none; display: inline !important;&quot;&gt;%3CmxGraphModel%3E%3Croot%3E%3CmxCell%20id%3D%220%22%2F%3E%3CmxCell%20id%3D%221%22%20parent%3D%220%22%2F%3E" style="fontColor=#0066CC;verticalAlign=top;verticalLabelPosition=bottom;labelPosition=center;align=center;html=1;outlineConnect=0;fillColor=#CCCCCC;strokeColor=#6881B3;gradientColor=none;gradientDirection=north;strokeWidth=2;shape=mxgraph.networks.pc;" vertex="1" parent="1">
          <mxGeometry x="-320" y="200" width="60" height="50" as="geometry" />
        </mxCell>
        <mxCell id="ulOZlzncEij44m-0XtQn-2291" value="" style="fontColor=#0066CC;verticalAlign=top;verticalLabelPosition=bottom;labelPosition=center;align=center;html=1;outlineConnect=0;fillColor=#CCCCCC;strokeColor=#6881B3;gradientColor=none;gradientDirection=north;strokeWidth=2;shape=mxgraph.networks.pc;" vertex="1" parent="1">
          <mxGeometry x="-210" y="200" width="60" height="50" as="geometry" />
        </mxCell>
        <mxCell id="ulOZlzncEij44m-0XtQn-2292" value="" style="fontColor=#0066CC;verticalAlign=top;verticalLabelPosition=bottom;labelPosition=center;align=center;html=1;outlineConnect=0;fillColor=#CCCCCC;strokeColor=#6881B3;gradientColor=none;gradientDirection=north;strokeWidth=2;shape=mxgraph.networks.pc;" vertex="1" parent="1">
          <mxGeometry x="-100" y="200" width="60" height="50" as="geometry" />
        </mxCell>
        <mxCell id="ulOZlzncEij44m-0XtQn-2293" value="" style="fontColor=#0066CC;verticalAlign=top;verticalLabelPosition=bottom;labelPosition=center;align=center;html=1;outlineConnect=0;fillColor=#CCCCCC;strokeColor=#6881B3;gradientColor=none;gradientDirection=north;strokeWidth=2;shape=mxgraph.networks.pc;" vertex="1" parent="1">
          <mxGeometry x="10" y="200" width="60" height="50" as="geometry" />
        </mxCell>
        <mxCell id="ulOZlzncEij44m-0XtQn-2294" value="&#xa;&lt;span style=&quot;color: rgba(0, 0, 0, 0); font-family: monospace; font-size: 0px; font-style: normal; font-variant-ligatures: normal; font-variant-caps: normal; font-weight: 400; letter-spacing: normal; orphans: 2; text-align: start; text-indent: 0px; text-transform: none; widows: 2; word-spacing: 0px; -webkit-text-stroke-width: 0px; background-color: rgb(251, 251, 251); text-decoration-thickness: initial; text-decoration-style: initial; text-decoration-color: initial; float: none; display: inline !important;&quot;&gt;%3CmxGraphModel%3E%3Croot%3E%3CmxCell%20id%3D%220%22%2F%3E%3CmxCell%20id%3D%221%22%20parent%3D%220%22%2F%3E" style="fontColor=#0066CC;verticalAlign=top;verticalLabelPosition=bottom;labelPosition=center;align=center;html=1;outlineConnect=0;fillColor=#CCCCCC;strokeColor=#6881B3;gradientColor=none;gradientDirection=north;strokeWidth=2;shape=mxgraph.networks.pc;" vertex="1" parent="1">
          <mxGeometry x="-430" y="200" width="60" height="50" as="geometry" />
        </mxCell>
        <mxCell id="ulOZlzncEij44m-0XtQn-2295" value="&#xa;&lt;span style=&quot;color: rgba(0, 0, 0, 0); font-family: monospace; font-size: 0px; font-style: normal; font-variant-ligatures: normal; font-variant-caps: normal; font-weight: 400; letter-spacing: normal; orphans: 2; text-align: start; text-indent: 0px; text-transform: none; widows: 2; word-spacing: 0px; -webkit-text-stroke-width: 0px; background-color: rgb(251, 251, 251); text-decoration-thickness: initial; text-decoration-style: initial; text-decoration-color: initial; float: none; display: inline !important;&quot;&gt;%3CmxGraphModel%3E%3Croot%3E%3CmxCell%20id%3D%220%22%2F%3E%3CmxCell%20id%3D%221%22%20parent%3D%220%22%2F%3E" style="fontColor=#0066CC;verticalAlign=top;verticalLabelPosition=bottom;labelPosition=center;align=center;html=1;outlineConnect=0;fillColor=#CCCCCC;strokeColor=#6881B3;gradientColor=none;gradientDirection=north;strokeWidth=2;shape=mxgraph.networks.pc;" vertex="1" parent="1">
          <mxGeometry x="-320" y="70" width="60" height="50" as="geometry" />
        </mxCell>
        <mxCell id="ulOZlzncEij44m-0XtQn-2296" value="" style="fontColor=#0066CC;verticalAlign=top;verticalLabelPosition=bottom;labelPosition=center;align=center;html=1;outlineConnect=0;fillColor=#CCCCCC;strokeColor=#6881B3;gradientColor=none;gradientDirection=north;strokeWidth=2;shape=mxgraph.networks.pc;" vertex="1" parent="1">
          <mxGeometry x="-210" y="70" width="60" height="50" as="geometry" />
        </mxCell>
        <mxCell id="ulOZlzncEij44m-0XtQn-2297" value="" style="fontColor=#0066CC;verticalAlign=top;verticalLabelPosition=bottom;labelPosition=center;align=center;html=1;outlineConnect=0;fillColor=#CCCCCC;strokeColor=#6881B3;gradientColor=none;gradientDirection=north;strokeWidth=2;shape=mxgraph.networks.pc;" vertex="1" parent="1">
          <mxGeometry x="-100" y="70" width="60" height="50" as="geometry" />
        </mxCell>
        <mxCell id="ulOZlzncEij44m-0XtQn-2298" value="" style="fontColor=#0066CC;verticalAlign=top;verticalLabelPosition=bottom;labelPosition=center;align=center;html=1;outlineConnect=0;fillColor=#CCCCCC;strokeColor=#6881B3;gradientColor=none;gradientDirection=north;strokeWidth=2;shape=mxgraph.networks.pc;" vertex="1" parent="1">
          <mxGeometry x="10" y="70" width="60" height="50" as="geometry" />
        </mxCell>
        <mxCell id="ulOZlzncEij44m-0XtQn-2299" value="&#xa;&lt;span style=&quot;color: rgba(0, 0, 0, 0); font-family: monospace; font-size: 0px; font-style: normal; font-variant-ligatures: normal; font-variant-caps: normal; font-weight: 400; letter-spacing: normal; orphans: 2; text-align: start; text-indent: 0px; text-transform: none; widows: 2; word-spacing: 0px; -webkit-text-stroke-width: 0px; background-color: rgb(251, 251, 251); text-decoration-thickness: initial; text-decoration-style: initial; text-decoration-color: initial; float: none; display: inline !important;&quot;&gt;%3CmxGraphModel%3E%3Croot%3E%3CmxCell%20id%3D%220%22%2F%3E%3CmxCell%20id%3D%221%22%20parent%3D%220%22%2F%3E" style="fontColor=#0066CC;verticalAlign=top;verticalLabelPosition=bottom;labelPosition=center;align=center;html=1;outlineConnect=0;fillColor=#CCCCCC;strokeColor=#6881B3;gradientColor=none;gradientDirection=north;strokeWidth=2;shape=mxgraph.networks.pc;" vertex="1" parent="1">
          <mxGeometry x="-430" y="70" width="60" height="50" as="geometry" />
        </mxCell>
        <mxCell id="ulOZlzncEij44m-0XtQn-2300" value="&#xa;&lt;span style=&quot;color: rgba(0, 0, 0, 0); font-family: monospace; font-size: 0px; font-style: normal; font-variant-ligatures: normal; font-variant-caps: normal; font-weight: 400; letter-spacing: normal; orphans: 2; text-align: start; text-indent: 0px; text-transform: none; widows: 2; word-spacing: 0px; -webkit-text-stroke-width: 0px; background-color: rgb(251, 251, 251); text-decoration-thickness: initial; text-decoration-style: initial; text-decoration-color: initial; float: none; display: inline !important;&quot;&gt;%3CmxGraphModel%3E%3Croot%3E%3CmxCell%20id%3D%220%22%2F%3E%3CmxCell%20id%3D%221%22%20parent%3D%220%22%2F%3E" style="fontColor=#0066CC;verticalAlign=top;verticalLabelPosition=bottom;labelPosition=center;align=center;html=1;outlineConnect=0;fillColor=#CCCCCC;strokeColor=#6881B3;gradientColor=none;gradientDirection=north;strokeWidth=2;shape=mxgraph.networks.pc;" vertex="1" parent="1">
          <mxGeometry x="-320" y="323" width="60" height="50" as="geometry" />
        </mxCell>
        <mxCell id="ulOZlzncEij44m-0XtQn-2301" value="" style="fontColor=#0066CC;verticalAlign=top;verticalLabelPosition=bottom;labelPosition=center;align=center;html=1;outlineConnect=0;fillColor=#CCCCCC;strokeColor=#6881B3;gradientColor=none;gradientDirection=north;strokeWidth=2;shape=mxgraph.networks.pc;" vertex="1" parent="1">
          <mxGeometry x="-210" y="323" width="60" height="50" as="geometry" />
        </mxCell>
        <mxCell id="ulOZlzncEij44m-0XtQn-2302" value="" style="fontColor=#0066CC;verticalAlign=top;verticalLabelPosition=bottom;labelPosition=center;align=center;html=1;outlineConnect=0;fillColor=#CCCCCC;strokeColor=#6881B3;gradientColor=none;gradientDirection=north;strokeWidth=2;shape=mxgraph.networks.pc;" vertex="1" parent="1">
          <mxGeometry x="-100" y="323" width="60" height="50" as="geometry" />
        </mxCell>
        <mxCell id="ulOZlzncEij44m-0XtQn-2303" value="" style="fontColor=#0066CC;verticalAlign=top;verticalLabelPosition=bottom;labelPosition=center;align=center;html=1;outlineConnect=0;fillColor=#CCCCCC;strokeColor=#6881B3;gradientColor=none;gradientDirection=north;strokeWidth=2;shape=mxgraph.networks.pc;" vertex="1" parent="1">
          <mxGeometry x="10" y="323" width="60" height="50" as="geometry" />
        </mxCell>
        <mxCell id="ulOZlzncEij44m-0XtQn-2304" value="&#xa;&lt;span style=&quot;color: rgba(0, 0, 0, 0); font-family: monospace; font-size: 0px; font-style: normal; font-variant-ligatures: normal; font-variant-caps: normal; font-weight: 400; letter-spacing: normal; orphans: 2; text-align: start; text-indent: 0px; text-transform: none; widows: 2; word-spacing: 0px; -webkit-text-stroke-width: 0px; background-color: rgb(251, 251, 251); text-decoration-thickness: initial; text-decoration-style: initial; text-decoration-color: initial; float: none; display: inline !important;&quot;&gt;%3CmxGraphModel%3E%3Croot%3E%3CmxCell%20id%3D%220%22%2F%3E%3CmxCell%20id%3D%221%22%20parent%3D%220%22%2F%3E" style="fontColor=#0066CC;verticalAlign=top;verticalLabelPosition=bottom;labelPosition=center;align=center;html=1;outlineConnect=0;fillColor=#CCCCCC;strokeColor=#6881B3;gradientColor=none;gradientDirection=north;strokeWidth=2;shape=mxgraph.networks.pc;" vertex="1" parent="1">
          <mxGeometry x="-430" y="323" width="60" height="50" as="geometry" />
        </mxCell>
        <mxCell id="ulOZlzncEij44m-0XtQn-2305" value="&#xa;&lt;span style=&quot;color: rgba(0, 0, 0, 0); font-family: monospace; font-size: 0px; font-style: normal; font-variant-ligatures: normal; font-variant-caps: normal; font-weight: 400; letter-spacing: normal; orphans: 2; text-align: start; text-indent: 0px; text-transform: none; widows: 2; word-spacing: 0px; -webkit-text-stroke-width: 0px; background-color: rgb(251, 251, 251); text-decoration-thickness: initial; text-decoration-style: initial; text-decoration-color: initial; float: none; display: inline !important;&quot;&gt;%3CmxGraphModel%3E%3Croot%3E%3CmxCell%20id%3D%220%22%2F%3E%3CmxCell%20id%3D%221%22%20parent%3D%220%22%2F%3E" style="fontColor=#0066CC;verticalAlign=top;verticalLabelPosition=bottom;labelPosition=center;align=center;html=1;outlineConnect=0;fillColor=#CCCCCC;strokeColor=#6881B3;gradientColor=none;gradientDirection=north;strokeWidth=2;shape=mxgraph.networks.pc;" vertex="1" parent="1">
          <mxGeometry x="-320" y="470" width="60" height="50" as="geometry" />
        </mxCell>
        <mxCell id="ulOZlzncEij44m-0XtQn-2306" value="" style="fontColor=#0066CC;verticalAlign=top;verticalLabelPosition=bottom;labelPosition=center;align=center;html=1;outlineConnect=0;fillColor=#CCCCCC;strokeColor=#6881B3;gradientColor=none;gradientDirection=north;strokeWidth=2;shape=mxgraph.networks.pc;" vertex="1" parent="1">
          <mxGeometry x="-210" y="470" width="60" height="50" as="geometry" />
        </mxCell>
        <mxCell id="ulOZlzncEij44m-0XtQn-2307" value="" style="fontColor=#0066CC;verticalAlign=top;verticalLabelPosition=bottom;labelPosition=center;align=center;html=1;outlineConnect=0;fillColor=#CCCCCC;strokeColor=#6881B3;gradientColor=none;gradientDirection=north;strokeWidth=2;shape=mxgraph.networks.pc;" vertex="1" parent="1">
          <mxGeometry x="-100" y="470" width="60" height="50" as="geometry" />
        </mxCell>
        <mxCell id="ulOZlzncEij44m-0XtQn-2308" value="" style="fontColor=#0066CC;verticalAlign=top;verticalLabelPosition=bottom;labelPosition=center;align=center;html=1;outlineConnect=0;fillColor=#CCCCCC;strokeColor=#6881B3;gradientColor=none;gradientDirection=north;strokeWidth=2;shape=mxgraph.networks.pc;" vertex="1" parent="1">
          <mxGeometry x="10" y="470" width="60" height="50" as="geometry" />
        </mxCell>
        <mxCell id="ulOZlzncEij44m-0XtQn-2309" value="&#xa;&lt;span style=&quot;color: rgba(0, 0, 0, 0); font-family: monospace; font-size: 0px; font-style: normal; font-variant-ligatures: normal; font-variant-caps: normal; font-weight: 400; letter-spacing: normal; orphans: 2; text-align: start; text-indent: 0px; text-transform: none; widows: 2; word-spacing: 0px; -webkit-text-stroke-width: 0px; background-color: rgb(251, 251, 251); text-decoration-thickness: initial; text-decoration-style: initial; text-decoration-color: initial; float: none; display: inline !important;&quot;&gt;%3CmxGraphModel%3E%3Croot%3E%3CmxCell%20id%3D%220%22%2F%3E%3CmxCell%20id%3D%221%22%20parent%3D%220%22%2F%3E" style="fontColor=#0066CC;verticalAlign=top;verticalLabelPosition=bottom;labelPosition=center;align=center;html=1;outlineConnect=0;fillColor=#CCCCCC;strokeColor=#6881B3;gradientColor=none;gradientDirection=north;strokeWidth=2;shape=mxgraph.networks.pc;" vertex="1" parent="1">
          <mxGeometry x="-430" y="470" width="60" height="50" as="geometry" />
        </mxCell>
        <mxCell id="ulOZlzncEij44m-0XtQn-2310" value="&#xa;&lt;span style=&quot;color: rgba(0, 0, 0, 0); font-family: monospace; font-size: 0px; font-style: normal; font-variant-ligatures: normal; font-variant-caps: normal; font-weight: 400; letter-spacing: normal; orphans: 2; text-align: start; text-indent: 0px; text-transform: none; widows: 2; word-spacing: 0px; -webkit-text-stroke-width: 0px; background-color: rgb(251, 251, 251); text-decoration-thickness: initial; text-decoration-style: initial; text-decoration-color: initial; float: none; display: inline !important;&quot;&gt;%3CmxGraphModel%3E%3Croot%3E%3CmxCell%20id%3D%220%22%2F%3E%3CmxCell%20id%3D%221%22%20parent%3D%220%22%2F%3E" style="fontColor=#0066CC;verticalAlign=top;verticalLabelPosition=bottom;labelPosition=center;align=center;html=1;outlineConnect=0;fillColor=#CCCCCC;strokeColor=#6881B3;gradientColor=none;gradientDirection=north;strokeWidth=2;shape=mxgraph.networks.pc;" vertex="1" parent="1">
          <mxGeometry x="-320" y="600" width="60" height="50" as="geometry" />
        </mxCell>
        <mxCell id="ulOZlzncEij44m-0XtQn-2311" value="" style="fontColor=#0066CC;verticalAlign=top;verticalLabelPosition=bottom;labelPosition=center;align=center;html=1;outlineConnect=0;fillColor=#CCCCCC;strokeColor=#6881B3;gradientColor=none;gradientDirection=north;strokeWidth=2;shape=mxgraph.networks.pc;" vertex="1" parent="1">
          <mxGeometry x="-210" y="600" width="60" height="50" as="geometry" />
        </mxCell>
        <mxCell id="ulOZlzncEij44m-0XtQn-2312" value="" style="fontColor=#0066CC;verticalAlign=top;verticalLabelPosition=bottom;labelPosition=center;align=center;html=1;outlineConnect=0;fillColor=#CCCCCC;strokeColor=#6881B3;gradientColor=none;gradientDirection=north;strokeWidth=2;shape=mxgraph.networks.pc;" vertex="1" parent="1">
          <mxGeometry x="-100" y="600" width="60" height="50" as="geometry" />
        </mxCell>
        <mxCell id="ulOZlzncEij44m-0XtQn-2313" value="" style="fontColor=#0066CC;verticalAlign=top;verticalLabelPosition=bottom;labelPosition=center;align=center;html=1;outlineConnect=0;fillColor=#CCCCCC;strokeColor=#6881B3;gradientColor=none;gradientDirection=north;strokeWidth=2;shape=mxgraph.networks.pc;" vertex="1" parent="1">
          <mxGeometry x="10" y="600" width="60" height="50" as="geometry" />
        </mxCell>
        <mxCell id="ulOZlzncEij44m-0XtQn-2314" value="&#xa;&lt;span style=&quot;color: rgba(0, 0, 0, 0); font-family: monospace; font-size: 0px; font-style: normal; font-variant-ligatures: normal; font-variant-caps: normal; font-weight: 400; letter-spacing: normal; orphans: 2; text-align: start; text-indent: 0px; text-transform: none; widows: 2; word-spacing: 0px; -webkit-text-stroke-width: 0px; background-color: rgb(251, 251, 251); text-decoration-thickness: initial; text-decoration-style: initial; text-decoration-color: initial; float: none; display: inline !important;&quot;&gt;%3CmxGraphModel%3E%3Croot%3E%3CmxCell%20id%3D%220%22%2F%3E%3CmxCell%20id%3D%221%22%20parent%3D%220%22%2F%3E" style="fontColor=#0066CC;verticalAlign=top;verticalLabelPosition=bottom;labelPosition=center;align=center;html=1;outlineConnect=0;fillColor=#CCCCCC;strokeColor=#6881B3;gradientColor=none;gradientDirection=north;strokeWidth=2;shape=mxgraph.networks.pc;" vertex="1" parent="1">
          <mxGeometry x="-430" y="600" width="60" height="50" as="geometry" />
        </mxCell>
        <mxCell id="ulOZlzncEij44m-0XtQn-2315" value="" style="endArrow=none;html=1;rounded=0;" edge="1" parent="1">
          <mxGeometry width="50" height="50" relative="1" as="geometry">
            <mxPoint x="-400" y="410" as="sourcePoint" />
            <mxPoint x="-400" y="373" as="targetPoint" />
          </mxGeometry>
        </mxCell>
        <mxCell id="ulOZlzncEij44m-0XtQn-2316" value="" style="endArrow=none;html=1;rounded=0;" edge="1" parent="1">
          <mxGeometry width="50" height="50" relative="1" as="geometry">
            <mxPoint x="-290.5" y="410" as="sourcePoint" />
            <mxPoint x="-290.5" y="373" as="targetPoint" />
          </mxGeometry>
        </mxCell>
        <mxCell id="ulOZlzncEij44m-0XtQn-2317" value="&#xa;&lt;span style=&quot;color: rgba(0, 0, 0, 0); font-family: monospace; font-size: 0px; font-style: normal; font-variant-ligatures: normal; font-variant-caps: normal; font-weight: 400; letter-spacing: normal; orphans: 2; text-align: start; text-indent: 0px; text-transform: none; widows: 2; word-spacing: 0px; -webkit-text-stroke-width: 0px; background-color: rgb(251, 251, 251); text-decoration-thickness: initial; text-decoration-style: initial; text-decoration-color: initial; float: none; display: inline !important;&quot;&gt;%3CmxGraphModel%3E%3Croot%3E%3CmxCell%20id%3D%220%22%2F%3E%3CmxCell%20id%3D%221%22%20parent%3D%220%22%2F%3E%3CmxCell%20id%3D%222%22%20value%3D%22%22%20style%3D%22endArrow%3Dnone%3B3B1B3%3%0style%3D%22endArrow%20Dnone%3Bnone#221B22%20Style%3D%221endArrow%22Dnone%3Bnone#3B20B3BxCell html%2250D22%20Brounded%3D2250%22B%20%3edge%221D%22%20%3parent%22D%22%3%3E" style="endArrow=none;html=1;rounded=0;" edge="1" parent="1">
          <mxGeometry width="50" height="50" relative="1" as="geometry">
            <mxPoint x="-180.5" y="410" as="sourcePoint" />
            <mxPoint x="-180.5" y="373" as="targetPoint" />
          </mxGeometry>
        </mxCell>
        <mxCell id="ulOZlzncEij44m-0XtQn-2318" value="&#xa;&lt;span style=&quot;color: rgba(0, 0, 0, 0); font-family: monospace; font-size: 0px; font-style: normal; font-variant-ligatures: normal; font-variant-caps: normal; font-weight: 400; letter-spacing: normal; orphans: 2; text-align: start; text-indent: 0px; text-transform: none; widows: 2; word-spacing: 0px; -webkit-text-stroke-width: 0px; background-color: rgb(251, 251, 251); text-decoration-thickness: initial; text-decoration-style: initial; text-decoration-color: initial; float: none; display: inline !important;&quot;&gt;%3CmxGraphModel%3E%3Croot%3E%3CmxCell%20id%3D%220%22%2F%3E%3CmxCell%20id%3D%221%22%20parent%3D%220%22%2F%3E%3CmxCell%20id%3D%222%22%20value%3D%22%26%2310%3B%26lt%3Bspan%20style%3D%26quot%3Bcolor%3A%20rgba(0%2C%200%2C%200%2C%200)%3B%20font-family%3A%20monospace%3B%20font-size%3A%200px%3B%20font-style%3A%20normal%3B%20font-variant-ligatures%3A%20normal%3B%20font-variant-caps%3A%20normal%3B%20font-weight%3A%20400%3B%20letter-spacing%3A% 20normal%3B%20orphans%3A%202%3B%20text-align%3A%20start%3B%20text-indent%3A%200px%3B%20text-transform%3A%20none%3B%20widows%3A%202%3B%20word-spacing%3A%200px%3B%20-webkit-text-stroke-width%3A%200px%3B%20background-color%3A%20rgb(251%2C%20251%2C%20251)%3B%20text-decoration-thickness%3A%20initial%3B%20text-decoration-style%3A%20initial%3B%20text-decoration-color%3A%20initial%3B%20float%3A%20none%3B%20display%3A%20inline%20! important%3B%26quot%3B%26gt%3B%253CmxGraphModel%253E%253Croot%253E%253CmxCell%2520id%253D%25220%2522%252F%253E%253CmxCell%2520id%253D%25221%2522%2520parent%253D%25220%2522%252F%253E%253CmxCell%2520id%253D%25222%2522%2520%253%2522%2522%2520%253%2522%253%253%3%1%3parent%253D%250D%253D%2522D%2520D%253D%23221D%22D%2520%253D%25221D%2522&amp;amp;253%233D%20D%3D%20%252250D%22%2520D%253%2250F%2522D%2520D%253F%25221D%2522%2520D%253F%2522D%2522D%253%253D%22%20%3D%22D%3F%3D%3D%1D%3%3F%0D%3D%22%20value%3D%221%22%20style%3D%221endArrow%22Dnone%3B3B20B3%2250%22style%20D%3endArrow%2250Dnone%22Bnone%20B3%221Style%22D%20endArrow%3Dnone%22Bnone%22B3B3BxCell%20html%3D22%70Brounded%5D22% 20B%3%22410edge%22D%20%3%22parent%22D%2%3%3E%20%3style%22D%70endArrow%5Dnone%22Bhtml%20D3%22373Brounded%22D20%3B%22%22edge%2D%3%3%2parent%3D%3%2%3E" style="endArrow=none;html=1;rounded=0;" edge="1" parent="1">
          <mxGeometry width="50" height="50" relative="1" as="geometry">
            <mxPoint x="-70.5" y="410" as="sourcePoint" />
            <mxPoint x="-70.5" y="373" as="targetPoint" />
          </mxGeometry>
        </mxCell>
        <mxCell id="ulOZlzncEij44m-0XtQn-2319" value="&#xa;&lt;span style=&quot;color: rgba(0, 0, 0, 0); font-family: monospace; font-size: 0px; font-style: normal; font-variant-ligatures: normal; font-variant-caps: normal; font-weight: 400; letter-spacing: normal; orphans: 2; text-align: start; text-indent: 0px; text-transform: none; widows: 2; word-spacing: 0px; -webkit-text-stroke-width: 0px; background-color: rgb(251, 251, 251); text-decoration-thickness: initial; text-decoration-style: initial; text-decoration-color: initial; float: none; display: inline !important;&quot;&gt;%3CmxGraphModel%3E%3Croot%3E%3CmxCell%20id%3D%220%22%2F%3E%3CmxCell%20id%3D%221%22%20parent%3D%220%22%2F%3E%3CmxCell%20id%3D%222%22%20value%3D%22%26%2310%3B%26lt%3Bspan%20style%3D%26quot%3Bcolor%3A%20rgba(0%2C%200%2C%200%2C%200)%3B%20font-family%3A%20monospace%3B%20font-size%3A%200px%3B%20font-style%3A%20normal%3B%20font-variant-ligatures%3A%20normal%3B%20font-variant-caps%3A%20normal%3B%20font-weight%3A%20400%3B%20letter-spacing%3A% 20normal%3B%20orphans%3A%202%3B%20text-align%3A%20start%3B%20text-indent%3A%200px%3B%20text-transform%3A%20none%3B%20widows%3A%202%3B%20word-spacing%3A%200px%3B%20-webkit-text-stroke-width%3A%200px%3B%20background-color%3A%20rgb(251%2C%20251%2C%20251)%3B%20text-decoration-thickness%3A%20initial%3B%20text-decoration-style%3A%20initial%3B%20text-decoration-color%3A%20initial%3B%20float%3A%20none%3B%20display%3A%20inline%20! important%3B%26quot%3B%26gt%3B%253CmxGraphModel%253E%253Croot%253E%253CmxCell%2520id%253D%25220%2522%252F%253E%253CmxCell%2520id%253D%25221%2522%2520parent%253D%25220%2522%252F%253E%253CmxCell%2520id%253D%25222%2522%2520%253%2522%2522%2520%253%2522%253%253%3%1%3parent%253D%250D%253D%2522D%2520D%253D%23221D%22D%2520%253D%25221D%2522&amp;amp;253%233D%20D%3D%20%252250D%22%2520D%253%2250F%2522D%2520D%253F%25221D%2522%2520D%253F%2522D%2522D%253%253D%22%20%3D%22D%3F%3D%3D%1D%3%3F%0D%3D%22%20value%3D%221%22%20style%3D%221endArrow%22Dnone%3B3B20B3%2250%22style%20D%3endArrow%2250Dnone%22Bnone%20B3%221Style%22D%20endArrow%3Dnone%22Bnone%22B3B3BxCell%20html%3D22%70Brounded%5D22% 20B%3%22410edge%22D%20%3%22parent%22D%2%3%3E%20%3style%22D%70endArrow%5Dnone%22Bhtml%20D3%22373Brounded%22D20%3B%22%22edge%2D%3%3%2parent%3D%3%2%3E" style="endArrow=none;html=1;rounded=0;" edge="1" parent="1">
          <mxGeometry width="50" height="50" relative="1" as="geometry">
            <mxPoint x="39.5" y="407" as="sourcePoint" />
            <mxPoint x="39.5" y="370" as="targetPoint" />
          </mxGeometry>
        </mxCell>
        <mxCell id="ulOZlzncEij44m-0XtQn-2325" value="&#xa;&lt;span style=&quot;color: rgba(0, 0, 0, 0); font-family: monospace; font-size: 0px; font-style: normal; font-variant-ligatures: normal; font-variant-caps: normal; font-weight: 400; letter-spacing: normal; orphans: 2; text-align: start; text-indent: 0px; text-transform: none; widows: 2; word-spacing: 0px; -webkit-text-stroke-width: 0px; background-color: rgb(251, 251, 251); text-decoration-thickness: initial; text-decoration-style: initial; text-decoration-color: initial; float: none; display: inline !important;&quot;&gt;%3CmxGraphModel%3E%3Croot%3E%3CmxCell%20id%3D%220%22%2F%3E%3CmxCell%20id%3D%221%22%20parent%3D%220%22%2F%3E%3CmxCell%20id%3D%222%22%20value%3D%22%22%20style%3D%22endArrow%3Dnone%3Bhtml%3D1D3%3Brounded%0D3%22B%20%3edge%221D%22%20%3parent%221D%22%3%3E%20CmxGeometry%3width%2250D%22%20%3height%2250D%22%20%3relative%221D%22%20%3as%22D%22geometry%3%3E%20CmxPoint%3x%22D%530-22%20%3y%22390D% 22%20%3as%22D%22sourcePoint%2%3F%3E%20CmxPoint%3x%22D%530-22%20%3y%22360D%22%20%3as%22D%22targetPoint%2%3F%3E%2C%3FmxGeometry%3E%2C%3FmxCell%3E%2C%3Froot%3E" style="endArrow=none;html=1;rounded=0;" edge="1" parent="1">
          <mxGeometry x="-0.3333" width="50" height="50" relative="1" as="geometry">
            <mxPoint x="-400" y="270" as="sourcePoint" />
            <mxPoint x="-400.5" y="250" as="targetPoint" />
            <mxPoint as="offset" />
          </mxGeometry>
        </mxCell>
        <mxCell id="ulOZlzncEij44m-0XtQn-2326" value="" style="endArrow=none;html=1;rounded=0;" edge="1" parent="1">
          <mxGeometry width="50" height="50" relative="1" as="geometry">
            <mxPoint x="-400" y="550" as="sourcePoint" />
            <mxPoint x="-400.5" y="520" as="targetPoint" />
          </mxGeometry>
        </mxCell>
        <mxCell id="ulOZlzncEij44m-0XtQn-2327" value="&#xa;&lt;span style=&quot;color: rgba(0, 0, 0, 0); font-family: monospace; font-size: 0px; font-style: normal; font-variant-ligatures: normal; font-variant-caps: normal; font-weight: 400; letter-spacing: normal; orphans: 2; text-align: start; text-indent: 0px; text-transform: none; widows: 2; word-spacing: 0px; -webkit-text-stroke-width: 0px; background-color: rgb(251, 251, 251); text-decoration-thickness: initial; text-decoration-style: initial; text-decoration-color: initial; float: none; display: inline !important;&quot;&gt;%3CmxGraphModel%3E%3Croot%3E%3CmxCell%20id%3D%220%22%2F%3E%3CmxCell%20id%3D%221%22%20parent%3D%220%22%2F%3E%3CmxCell%20id%3D%222%22%20value%3D%22%22%20style%3D%22endArrow%3Dnone%3Bhtml%3D1D3%3Brounded%0D3%22B%20%3edge%221D%22%20%3parent%221D%22%3%3E%20CmxGeometry%3width%2250D%22%20%3height%2250D%22%20%3relative%221D%22%20%3as%22D%22geometry%3%3E%20CmxPoint%3x%22D%180-22%20%3y%22550D% 22%20%3as%22D%22sourcePoint%2%3F%3E%20CmxPoint%3x%22D%180-5.22%20%3y%22520D%22%20%3as%22D%22targetPoint%2%3F%3E%2C%3FmxGeometry%3E%2C%3FmxCell%3E%2C%3Froot%3E" style="endArrow=none;html=1;rounded=0;" edge="1" parent="1">
          <mxGeometry width="50" height="50" relative="1" as="geometry">
            <mxPoint x="-180" y="550" as="sourcePoint" />
            <mxPoint x="-180.5" y="520" as="targetPoint" />
          </mxGeometry>
        </mxCell>
        <mxCell id="ulOZlzncEij44m-0XtQn-2328" value="" style="endArrow=none;html=1;rounded=0;" edge="1" parent="1">
          <mxGeometry width="50" height="50" relative="1" as="geometry">
            <mxPoint x="-290" y="550" as="sourcePoint" />
            <mxPoint x="-290.5" y="520" as="targetPoint" />
          </mxGeometry>
        </mxCell>
        <mxCell id="ulOZlzncEij44m-0XtQn-2329" value="&#xa;&lt;span style=&quot;color: rgba(0, 0, 0, 0); font-family: monospace; font-size: 0px; font-style: normal; font-variant-ligatures: normal; font-variant-caps: normal; font-weight: 400; letter-spacing: normal; orphans: 2; text-align: start; text-indent: 0px; text-transform: none; widows: 2; word-spacing: 0px; -webkit-text-stroke-width: 0px; background-color: rgb(251, 251, 251); text-decoration-thickness: initial; text-decoration-style: initial; text-decoration-color: initial; float: none; display: inline !important;&quot;&gt;%3CmxGraphModel%3E%3Croot%3E%3CmxCell%20id%3D%220%22%2F%3E%3CmxCell%20id%3D%221%22%20parent%3D%220%22%2F%3E%3CmxCell%20id%3D%222%22%20value%3D%22%26%2310%3B%26lt%3Bspan%20style%3D%26quot%3Bcolor%3A%20rgba(0%2C%200%2C%200%2C%200)%3B%20font-family%3A%20monospace%3B%20font-size%3A%200px%3B%20font-style%3A%20normal%3B%20font-variant-ligatures%3A%20normal%3B%20font-variant-caps%3A%20normal%3B%20font-weight%3A%20400%3B%20letter-spacing%3A% 20normal%3B%20orphans%3A%202%3B%20text-align%3A%20start%3B%20text-indent%3A%200px%3B%20text-transform%3A%20none%3B%20widows%3A%202%3B%20word-spacing%3A%200px%3B%20-webkit-text-stroke-width%3A%200px%3B%20background-color%3A%20rgb(251%2C%20251%2C%20251)%3B%20text-decoration-thickness%3A%20initial%3B%20text-decoration-style%3A%20initial%3B%20text-decoration-color%3A%20initial%3B%20float%3A%20none%3B%20display%3A%20inline%20! important%3B%26quot%3B%26gt%3B%253CmxGraphModel%253E%253Croot%253E%253CmxCell%2520id%253D%25220%2522%252F%253E%253CmxCell%2520id%253D%25221%2522%2520parent%253D%25220%2522%252F%253E%253CmxCell%2520id%253D%25222%2522%2520value%253D%2522%2522%2520style%253D%2522endArrow%253Dnone%253Bhtml%253D1D3%253Brounded%250D3%2522B%2520%253edge%25221D%2522%2520%253parent%25221D%2522%253%253E%2520CmxGeometry%253width%252250D%2522%2520%253height%252250D%2522%2520% 253relative%25221D%2522%2520%253as%2522D%2522geometry%253%253E%2520CmxPoint%253x%2522D%25180-22%2520%253y%2522550D%25%2022%2520%253as%2522D%2522sourcePoint%252%253F%253E%2520CmxPoint%253x%2522D%25180-5. 22%2520%253y%2522520D%2522%2520%253as%2522D%2522targetPoint%252%253F%253E%252C%253FmxGeometry%253E%252C%253FmxCell%253E%252C%253Froot%253E%22%20style%3D%22endArrow%3Dnone%3Bhtml%3D1%3Brounded%3D0%3B%22%20edge %3D%221%22%20parent%3D%221%22%3E%3CmxGeometry%20width%3D%2250%22%20height%3D%2250%22%20relative%3D%221%22%20as%3D%22geometry%22%3E%3CmxPoint%20x%3D%22-70%22%20y%3D%22550%22%20as%3D%22sourcePoint%22%2F%3E%3CmxPoint% 20x%3D%22-70.5%22%20y%3D%22520%22%20as%3D%22targetPoint%22%2F%3E%3C%2FmxGeometry%3E%3C%2FmxCell%3E%3C%2Froot%3E%3C%2FmxGraphModel%3E" style="endArrow=none;html=1;rounded=0;" edge="1" parent="1">
          <mxGeometry width="50" height="50" relative="1" as="geometry">
            <mxPoint x="-70" y="550" as="sourcePoint" />
            <mxPoint x="-70.5" y="520" as="targetPoint" />
          </mxGeometry>
        </mxCell>
        <mxCell id="ulOZlzncEij44m-0XtQn-2330" value="&#xa;&lt;span style=&quot;color: rgba(0, 0, 0, 0); font-family: monospace; font-size: 0px; font-style: normal; font-variant-ligatures: normal; font-variant-caps: normal; font-weight: 400; letter-spacing: normal; orphans: 2; text-align: start; text-indent: 0px; text-transform: none; widows: 2; word-spacing: 0px; -webkit-text-stroke-width: 0px; background-color: rgb(251, 251, 251); text-decoration-thickness: initial; text-decoration-style: initial; text-decoration-color: initial; float: none; display: inline !important;&quot;&gt;%3CmxGraphModel%3E%3Croot%3E%3CmxCell%20id%3D%220%22%2F%3E%3CmxCell%20id%3D%221%22%20parent%3D%220%22%2F%3E%3CmxCell%20id%3D%222%22%20value%3D%22%26%2310%3B%26lt%3Bspan%20style%3D%26quot%3Bcolor%3A%20rgba(0%2C%200%2C%200%2C%200)%3B%20font-family%3A%20monospace%3B%20font-size%3A%200px%3B%20font-style%3A%20normal%3B%20font-variant-ligatures%3A%20normal%3B%20font-variant-caps%3A%20normal%3B%20font-weight%3A%20400%3B%20letter-spacing%3A% 20normal%3B%20orphans%3A%202%3B%20text-align%3A%20start%3B%20text-indent%3A%200px%3B%20text-transform%3A%20none%3B%20widows%3A%202%3B%20word-spacing%3A%200px%3B%20-webkit-text-stroke-width%3A%200px%3B%20background-color%3A%20rgb(251%2C%20251%2C%20251)%3B%20text-decoration-thickness%3A%20initial%3B%20text-decoration-style%3A%20initial%3B%20text-decoration-color%3A%20initial%3B%20float%3A%20none%3B%20display%3A%20inline%20! important%3B%26quot%3B%26gt%3B%253CmxGraphModel%253E%253Croot%253E%253CmxCell%2520id%253D%25220%2522%252F%253E%253CmxCell%2520id%253D%25221%2522%2520parent%253D%25220%2522%252F%253E%253CmxCell%2520id%253D%25222%2522%2520value%253D%2522%2522%2520style%253D%2522endArrow%253Dnone%253Bhtml%253D1D3%253Brounded%250D3%2522B%2520%253edge%25221D%2522%2520%253parent%25221D%2522%253%253E%2520CmxGeometry%253width%252250D%2522%2520%253height%252250D%2522%2520% 253relative%25221D%2522%2520%253as%2522D%2522geometry%253%253E%2520CmxPoint%253x%2522D%25180-22%2520%253y%2522550D%25%2022%2520%253as%2522D%2522sourcePoint%252%253F%253E%2520CmxPoint%253x%2522D%25180-5. 22%2520%253y%2522520D%2522%2520%253as%2522D%2522targetPoint%252%253F%253E%252C%253FmxGeometry%253E%252C%253FmxCell%253E%252C%253Froot%253E%22%20style%3D%22endArrow%3Dnone%3Bhtml%3D1%3Brounded%3D0%3B%22%20edge %3D%221%22%20parent%3D%221%22%3E%3CmxGeometry%20width%3D%2250%22%20height%3D%2250%22%20relative%3D%221%22%20as%3D%22geometry%22%3E%3CmxPoint%20x%3D%22-70%22%20y%3D%22550%22%20as%3D%22sourcePoint%22%2F%3E%3CmxPoint% 20x%3D%22-70.5%22%20y%3D%22520%22%20as%3D%22targetPoint%22%2F%3E%3C%2FmxGeometry%3E%3C%2FmxCell%3E%3C%2Froot%3E%3C%2FmxGraphModel%3E" style="endArrow=none;html=1;rounded=0;" edge="1" parent="1">
          <mxGeometry width="50" height="50" relative="1" as="geometry">
            <mxPoint x="40" y="550" as="sourcePoint" />
            <mxPoint x="39.5" y="520" as="targetPoint" />
          </mxGeometry>
        </mxCell>
        <mxCell id="ulOZlzncEij44m-0XtQn-2331" value="&#xa;&lt;span style=&quot;color: rgba(0, 0, 0, 0); font-family: monospace; font-size: 0px; font-style: normal; font-variant-ligatures: normal; font-variant-caps: normal; font-weight: 400; letter-spacing: normal; orphans: 2; text-align: start; text-indent: 0px; text-transform: none; widows: 2; word-spacing: 0px; -webkit-text-stroke-width: 0px; background-color: rgb(251, 251, 251); text-decoration-thickness: initial; text-decoration-style: initial; text-decoration-color: initial; float: none; display: inline !important;&quot;&gt;%3CmxGraphModel%3E%3Croot%3E%3CmxCell%20id%3D%220%22%2F%3E%3CmxCell%20id%3D%221%22%20parent%3D%220%22%2F%3E%3CmxCell%20id%3D%222%22%20value%3D%22%22%20style%3D%22endArrow%3Dnone%3Bhtml%3D1D3%3Brounded%0D3%22B%20%3edge%221D%22%20%3parent%221D%22%3%3E%20CmxGeometry%3width%2250D%22%20%3height%2250D%22%20%3relative%221D%22%20%3as%22D%22geometry%3%3E%20CmxPoint%3x%22D%530-22%20%3y%22390D% 22%20%3as%22D%22sourcePoint%2%3F%3E%20CmxPoint%3x%22D%530-22%20%3y%22360D%22%20%3as%22D%22targetPoint%2%3F%3E%2C%3FmxGeometry%3E%2C%3FmxCell%3E%2C%3Froot%3E" style="endArrow=none;html=1;rounded=0;" edge="1" parent="1">
          <mxGeometry width="50" height="50" relative="1" as="geometry">
            <mxPoint x="-400" y="690" as="sourcePoint" />
            <mxPoint x="-400.5" y="650" as="targetPoint" />
          </mxGeometry>
        </mxCell>
        <mxCell id="ulOZlzncEij44m-0XtQn-2332" value="&#xa;&lt;span style=&quot;color: rgba(0, 0, 0, 0); font-family: monospace; font-size: 0px; font-style: normal; font-variant-ligatures: normal; font-variant-caps: normal; font-weight: 400; letter-spacing: normal; orphans: 2; text-align: start; text-indent: 0px; text-transform: none; widows: 2; word-spacing: 0px; -webkit-text-stroke-width: 0px; background-color: rgb(251, 251, 251); text-decoration-thickness: initial; text-decoration-style: initial; text-decoration-color: initial; float: none; display: inline !important;&quot;&gt;%3CmxGraphModel%3E%3Croot%3E%3CmxCell%20id%3D%220%22%2F%3E%3CmxCell%20id%3D%221%22%20parent%3D%220%22%2F%3E%3CmxCell%20id%3D%222%22%20value%3D%22%22%20style%3D%22endArrow%3Dnone%3Bhtml%3D1D3%3Brounded%0D3%22B%20%3edge%221D%22%20%3parent%221D%22%3%3E%20CmxGeometry%3width%2250D%22%20%3height%2250D%22%20%3relative%221D%22%20%3as%22D%22geometry%3%3E%20CmxPoint%3x%22D%530-22%20%3y%22390D% 22%20%3as%22D%22sourcePoint%2%3F%3E%20CmxPoint%3x%22D%530-22%20%3y%22360D%22%20%3as%22D%22targetPoint%2%3F%3E%2C%3FmxGeometry%3E%2C%3FmxCell%3E%2C%3Froot%3E" style="endArrow=none;html=1;rounded=0;" edge="1" parent="1">
          <mxGeometry width="50" height="50" relative="1" as="geometry">
            <mxPoint x="40" y="690" as="sourcePoint" />
            <mxPoint x="39.5" y="650" as="targetPoint" />
          </mxGeometry>
        </mxCell>
        <mxCell id="ulOZlzncEij44m-0XtQn-2333" value="&#xa;&lt;span style=&quot;color: rgba(0, 0, 0, 0); font-family: monospace; font-size: 0px; font-style: normal; font-variant-ligatures: normal; font-variant-caps: normal; font-weight: 400; letter-spacing: normal; orphans: 2; text-align: start; text-indent: 0px; text-transform: none; widows: 2; word-spacing: 0px; -webkit-text-stroke-width: 0px; background-color: rgb(251, 251, 251); text-decoration-thickness: initial; text-decoration-style: initial; text-decoration-color: initial; float: none; display: inline !important;&quot;&gt;%3CmxGraphModel%3E%3Croot%3E%3CmxCell%20id%3D%220%22%2F%3E%3CmxCell%20id%3D%221%22%20parent%3D%220%22%2F%3E%3CmxCell%20id%3D%222%22%20value%3D%22%22%20style%3D%22endArrow%3Dnone%3Bhtml%3D1D3%3Brounded%0D3%22B%20%3edge%221D%22%20%3parent%221D%22%3%3E%20CmxGeometry%3width%2250D%22%20%3height%2250D%22%20%3relative%221D%22%20%3as%22D%22geometry%3%3E%20CmxPoint%3x%22D%530-22%20%3y%22390D% 22%20%3as%22D%22sourcePoint%2%3F%3E%20CmxPoint%3x%22D%530-22%20%3y%22360D%22%20%3as%22D%22targetPoint%2%3F%3E%2C%3FmxGeometry%3E%2C%3FmxCell%3E%2C%3Froot%3E" style="endArrow=none;html=1;rounded=0;" edge="1" parent="1">
          <mxGeometry x="0.9622" y="-60" width="50" height="50" relative="1" as="geometry">
            <mxPoint x="-70" y="690" as="sourcePoint" />
            <mxPoint x="-70.5" y="650" as="targetPoint" />
            <mxPoint as="offset" />
          </mxGeometry>
        </mxCell>
        <mxCell id="ulOZlzncEij44m-0XtQn-2334" value="&#xa;&lt;span style=&quot;color: rgba(0, 0, 0, 0); font-family: monospace; font-size: 0px; font-style: normal; font-variant-ligatures: normal; font-variant-caps: normal; font-weight: 400; letter-spacing: normal; orphans: 2; text-align: start; text-indent: 0px; text-transform: none; widows: 2; word-spacing: 0px; -webkit-text-stroke-width: 0px; background-color: rgb(251, 251, 251); text-decoration-thickness: initial; text-decoration-style: initial; text-decoration-color: initial; float: none; display: inline !important;&quot;&gt;%3CmxGraphModel%3E%3Croot%3E%3CmxCell%20id%3D%220%22%2F%3E%3CmxCell%20id%3D%221%22%20parent%3D%220%22%2F%3E%3CmxCell%20id%3D%222%22%20value%3D%22%22%20style%3D%22endArrow%3Dnone%3Bhtml%3D1D3%3Brounded%0D3%22B%20%3edge%221D%22%20%3parent%221D%22%3%3E%20CmxGeometry%3width%2250D%22%20%3height%2250D%22%20%3relative%221D%22%20%3as%22D%22geometry%3%3E%20CmxPoint%3x%22D%530-22%20%3y%22390D% 22%20%3as%22D%22sourcePoint%2%3F%3E%20CmxPoint%3x%22D%530-22%20%3y%22360D%22%20%3as%22D%22targetPoint%2%3F%3E%2C%3FmxGeometry%3E%2C%3FmxCell%3E%2C%3Froot%3E" style="endArrow=none;html=1;rounded=0;" edge="1" parent="1">
          <mxGeometry width="50" height="50" relative="1" as="geometry">
            <mxPoint x="-180" y="690" as="sourcePoint" />
            <mxPoint x="-180.5" y="650" as="targetPoint" />
          </mxGeometry>
        </mxCell>
        <mxCell id="ulOZlzncEij44m-0XtQn-2335" value="&#xa;&lt;span style=&quot;color: rgba(0, 0, 0, 0); font-family: monospace; font-size: 0px; font-style: normal; font-variant-ligatures: normal; font-variant-caps: normal; font-weight: 400; letter-spacing: normal; orphans: 2; text-align: start; text-indent: 0px; text-transform: none; widows: 2; word-spacing: 0px; -webkit-text-stroke-width: 0px; background-color: rgb(251, 251, 251); text-decoration-thickness: initial; text-decoration-style: initial; text-decoration-color: initial; float: none; display: inline !important;&quot;&gt;%3CmxGraphModel%3E%3Croot%3E%3CmxCell%20id%3D%220%22%2F%3E%3CmxCell%20id%3D%221%22%20parent%3D%220%22%2F%3E%3CmxCell%20id%3D%222%22%20value%3D%22%22%20style%3D%22endArrow%3Dnone%3Bhtml%3D1D3%3Brounded%0D3%22B%20%3edge%221D%22%20%3parent%221D%22%3%3E%20CmxGeometry%3width%2250D%22%20%3height%2250D%22%20%3relative%221D%22%20%3as%22D%22geometry%3%3E%20CmxPoint%3x%22D%530-22%20%3y%22390D% 22%20%3as%22D%22sourcePoint%2%3F%3E%20CmxPoint%3x%22D%530-22%20%3y%22360D%22%20%3as%22D%22targetPoint%2%3F%3E%2C%3FmxGeometry%3E%2C%3FmxCell%3E%2C%3Froot%3E" style="endArrow=none;html=1;rounded=0;" edge="1" parent="1">
          <mxGeometry width="50" height="50" relative="1" as="geometry">
            <mxPoint x="-290" y="690" as="sourcePoint" />
            <mxPoint x="-290.5" y="650" as="targetPoint" />
          </mxGeometry>
        </mxCell>
        <mxCell id="ulOZlzncEij44m-0XtQn-2339" value="&#xa;&lt;span style=&quot;color: rgba(0, 0, 0, 0); font-family: monospace; font-size: 0px; font-style: normal; font-variant-ligatures: normal; font-variant-caps: normal; font-weight: 400; letter-spacing: normal; orphans: 2; text-align: start; text-indent: 0px; text-transform: none; widows: 2; word-spacing: 0px; -webkit-text-stroke-width: 0px; background-color: rgb(251, 251, 251); text-decoration-thickness: initial; text-decoration-style: initial; text-decoration-color: initial; float: none; display: inline !important;&quot;&gt;%3CmxGraphModel%3E%3Croot%3E%3CmxCell%20id%3D%220%22%2F%3E%3CmxCell%20id%3D%221%22%20parent%3D%220%22%2F%3E%3CmxCell%20id%3D%222%22%20value%3D%22%22%20style%3D%22endArrow%3Dnone%3Bhtml%3D1D3%3Brounded%0D3%22B%20%3edge%221D%22%20%3parent%221D%22%3%3E%20CmxGeometry%3width%2250D%22%20%3height%2250D%22%20%3relative%221D%22%20%3as%22D%22geometry%3%3E%20CmxPoint%3x%22D%530-22%20%3y%22390D% 22%20%3as%22D%22sourcePoint%2%3F%3E%20CmxPoint%3x%22D%530-22%20%3y%22360D%22%20%3as%22D%22targetPoint%2%3F%3E%2C%3FmxGeometry%3E%2C%3FmxCell%3E%2C%3Froot%3E" style="endArrow=none;html=1;rounded=0;" edge="1" parent="1">
          <mxGeometry x="-0.3333" width="50" height="50" relative="1" as="geometry">
            <mxPoint x="40" y="270" as="sourcePoint" />
            <mxPoint x="39.5" y="250" as="targetPoint" />
            <mxPoint as="offset" />
          </mxGeometry>
        </mxCell>
        <mxCell id="ulOZlzncEij44m-0XtQn-2340" value="&#xa;&lt;span style=&quot;color: rgba(0, 0, 0, 0); font-family: monospace; font-size: 0px; font-style: normal; font-variant-ligatures: normal; font-variant-caps: normal; font-weight: 400; letter-spacing: normal; orphans: 2; text-align: start; text-indent: 0px; text-transform: none; widows: 2; word-spacing: 0px; -webkit-text-stroke-width: 0px; background-color: rgb(251, 251, 251); text-decoration-thickness: initial; text-decoration-style: initial; text-decoration-color: initial; float: none; display: inline !important;&quot;&gt;%3CmxGraphModel%3E%3Croot%3E%3CmxCell%20id%3D%220%22%2F%3E%3CmxCell%20id%3D%221%22%20parent%3D%220%22%2F%3E%3CmxCell%20id%3D%222%22%20value%3D%22%22%20style%3D%22endArrow%3Dnone%3Bhtml%3D1D3%3Brounded%0D3%22B%20%3edge%221D%22%20%3parent%221D%22%3%3E%20CmxGeometry%3width%2250D%22%20%3height%2250D%22%20%3relative%221D%22%20%3as%22D%22geometry%3%3E%20CmxPoint%3x%22D%530-22%20%3y%22390D% 22%20%3as%22D%22sourcePoint%2%3F%3E%20CmxPoint%3x%22D%530-22%20%3y%22360D%22%20%3as%22D%22targetPoint%2%3F%3E%2C%3FmxGeometry%3E%2C%3FmxCell%3E%2C%3Froot%3E" style="endArrow=none;html=1;rounded=0;" edge="1" parent="1">
          <mxGeometry x="-0.3333" width="50" height="50" relative="1" as="geometry">
            <mxPoint x="-70" y="270" as="sourcePoint" />
            <mxPoint x="-70.5" y="250" as="targetPoint" />
            <mxPoint as="offset" />
          </mxGeometry>
        </mxCell>
        <mxCell id="ulOZlzncEij44m-0XtQn-2341" value="&#xa;&lt;span style=&quot;color: rgba(0, 0, 0, 0); font-family: monospace; font-size: 0px; font-style: normal; font-variant-ligatures: normal; font-variant-caps: normal; font-weight: 400; letter-spacing: normal; orphans: 2; text-align: start; text-indent: 0px; text-transform: none; widows: 2; word-spacing: 0px; -webkit-text-stroke-width: 0px; background-color: rgb(251, 251, 251); text-decoration-thickness: initial; text-decoration-style: initial; text-decoration-color: initial; float: none; display: inline !important;&quot;&gt;%3CmxGraphModel%3E%3Croot%3E%3CmxCell%20id%3D%220%22%2F%3E%3CmxCell%20id%3D%221%22%20parent%3D%220%22%2F%3E%3CmxCell%20id%3D%222%22%20value%3D%22%22%20style%3D%22endArrow%3Dnone%3Bhtml%3D1D3%3Brounded%0D3%22B%20%3edge%221D%22%20%3parent%221D%22%3%3E%20CmxGeometry%3width%2250D%22%20%3height%2250D%22%20%3relative%221D%22%20%3as%22D%22geometry%3%3E%20CmxPoint%3x%22D%530-22%20%3y%22390D% 22%20%3as%22D%22sourcePoint%2%3F%3E%20CmxPoint%3x%22D%530-22%20%3y%22360D%22%20%3as%22D%22targetPoint%2%3F%3E%2C%3FmxGeometry%3E%2C%3FmxCell%3E%2C%3Froot%3E" style="endArrow=none;html=1;rounded=0;" edge="1" parent="1">
          <mxGeometry x="-0.3333" width="50" height="50" relative="1" as="geometry">
            <mxPoint x="-180" y="270" as="sourcePoint" />
            <mxPoint x="-180.5" y="250" as="targetPoint" />
            <mxPoint as="offset" />
          </mxGeometry>
        </mxCell>
        <mxCell id="ulOZlzncEij44m-0XtQn-2343" value="&#xa;&lt;span style=&quot;color: rgba(0, 0, 0, 0); font-family: monospace; font-size: 0px; font-style: normal; font-variant-ligatures: normal; font-variant-caps: normal; font-weight: 400; letter-spacing: normal; orphans: 2; text-align: start; text-indent: 0px; text-transform: none; widows: 2; word-spacing: 0px; -webkit-text-stroke-width: 0px; background-color: rgb(251, 251, 251); text-decoration-thickness: initial; text-decoration-style: initial; text-decoration-color: initial; float: none; display: inline !important;&quot;&gt;%3CmxGraphModel%3E%3Croot%3E%3CmxCell%20id%3D%220%22%2F%3E%3CmxCell%20id%3D%221%22%20parent%3D%220%22%2F%3E%3CmxCell%20id%3D%222%22%20value%3D%22%22%20style%3D%22endArrow%3Dnone%3Bhtml%3D1D3%3Brounded%0D3%22B%20%3edge%221D%22%20%3parent%221D%22%3%3E%20CmxGeometry%3width%2250D%22%20%3height%2250D%22%20%3relative%221D%22%20%3as%22D%22geometry%3%3E%20CmxPoint%3x%22D%530-22%20%3y%22390D% 22%20%3as%22D%22sourcePoint%2%3F%3E%20CmxPoint%3x%22D%530-22%20%3y%22360D%22%20%3as%22D%22targetPoint%2%3F%3E%2C%3FmxGeometry%3E%2C%3FmxCell%3E%2C%3Froot%3E" style="endArrow=none;html=1;rounded=0;" edge="1" parent="1">
          <mxGeometry x="-0.3333" width="50" height="50" relative="1" as="geometry">
            <mxPoint x="-290" y="270" as="sourcePoint" />
            <mxPoint x="-290.5" y="250" as="targetPoint" />
            <mxPoint as="offset" />
          </mxGeometry>
        </mxCell>
        <mxCell id="ulOZlzncEij44m-0XtQn-2344" value="&#xa;&lt;span style=&quot;color: rgba(0, 0, 0, 0); font-family: monospace; font-size: 0px; font-style: normal; font-variant-ligatures: normal; font-variant-caps: normal; font-weight: 400; letter-spacing: normal; orphans: 2; text-align: start; text-indent: 0px; text-transform: none; widows: 2; word-spacing: 0px; -webkit-text-stroke-width: 0px; background-color: rgb(251, 251, 251); text-decoration-thickness: initial; text-decoration-style: initial; text-decoration-color: initial; float: none; display: inline !important;&quot;&gt;%3CmxGraphModel%3E%3Croot%3E%3CmxCell%20id%3D%220%22%2F%3E%3CmxCell%20id%3D%221%22%20parent%3D%220%22%2F%3E%3CmxCell%20id%3D%222%22%20value%3D%22%26%2310%3B%26lt%3Bspan%20style%3D%26quot%3Bcolor%3A%20rgba(0%2C%200%2C%200%2C%200)%3B%20font-family%3A%20monospace%3B%20font-size%3A%200px%3B%20font-style%3A%20normal%3B%20font-variant-ligatures%3A%20normal%3B%20font-variant-caps%3A%20normal%3B%20font-weight%3A%20400%3B%20letter-spacing%3A% 20normal%3B%20orphans%3A%202%3B%20text-align%3A%20start%3B%20text-indent%3A%200px%3B%20text-transform%3A%20none%3B%20widows%3A%202%3B%20word-spacing%3A%200px%3B%20-webkit-text-stroke-width%3A%200px%3B%20background-color%3A%20rgb(251%2C%20251%2C%20251)%3B%20text-decoration-thickness%3A%20initial%3B%20text-decoration-style%3A%20initial%3B%20text-decoration-color%3A%20initial%3B%20float%3A%20none%3B%20display%3A%20inline%20! important%3B%26quot%3B%26gt%3B%253CmxGraphModel%253E%253Croot%253E%253CmxCell%2520id%253D%25220%2522%252F%253E%253CmxCell%2520id%253D%25221%2522%2520parent%253D%25220%2522%252F%253E%253CmxCell%2520id%253D%25222%2522%2520value%253D%2522%2522%2520style%253D%2522endArrow%253Dnone%253Bhtml%253D1D3%253Brounded%250D3%2522B%2520%253edge%25221D%2522%2520%253parent%25221D%2522%253%253E%2520CmxGeometry%253width%252250D%2522%2520%253height%252250D%2522%2520% 253relative%25221D%2522%2520%253as%2522D%2522geometry%253%253E%2520CmxPoint%253x%2522D%25540-22%2520%253y%2522170D%25%2022%2520%253as%2522D%2522sourcePoint%252%253F%253E%2520CmxPoint%253x%2522D%25540-22%2520%253y%2522140D%2522%2520%253as%2522D%2522targetPoint%252%253F%253E%252C%253FmxGeometry%253E%252C%253FmxCell%253E%252C%253Froot%253E%22%20style%3D%22endArrow%3Dnone%3Bhtml%3D1%3Brounded%3D0%3B%22%20edge%3D%221%22%20parent%3D%221%22%3E% 3CmxGeometry%20width%3D%2250%22%20height%3D%2250%22%20relative%3D%221%22%20as%3D%22geometry%22%3E%3CmxPoint%20x%3D%22-540%22%20y%3D%22170%22%20as%3D%22sourcePoint%22%2F%3E%3CmxPoint%20x%3D%22-540%22%20y%3D%22140%22%20as%3D%22targetPoint%22%2F%3E%3C%2FmxGeometry%3E%3C%2FmxCell%3E%3C%2Froot%3E%3C%2FmxGraphModel%3E" style="endArrow=none;html=1;rounded=0;" edge="1" parent="1">
          <mxGeometry width="50" height="50" relative="1" as="geometry">
            <mxPoint x="39.5" y="150" as="sourcePoint" />
            <mxPoint x="39.5" y="120" as="targetPoint" />
          </mxGeometry>
        </mxCell>
        <mxCell id="ulOZlzncEij44m-0XtQn-2345" value="&#xa;&lt;span style=&quot;color: rgba(0, 0, 0, 0); font-family: monospace; font-size: 0px; font-style: normal; font-variant-ligatures: normal; font-variant-caps: normal; font-weight: 400; letter-spacing: normal; orphans: 2; text-align: start; text-indent: 0px; text-transform: none; widows: 2; word-spacing: 0px; -webkit-text-stroke-width: 0px; background-color: rgb(251, 251, 251); text-decoration-thickness: initial; text-decoration-style: initial; text-decoration-color: initial; float: none; display: inline !important;&quot;&gt;%3CmxGraphModel%3E%3Croot%3E%3CmxCell%20id%3D%220%22%2F%3E%3CmxCell%20id%3D%221%22%20parent%3D%220%22%2F%3E%3CmxCell%20id%3D%222%22%20value%3D%22%26%2310%3B%26lt%3Bspan%20style%3D%26quot%3Bcolor%3A%20rgba(0%2C%200%2C%200%2C%200)%3B%20font-family%3A%20monospace%3B%20font-size%3A%200px%3B%20font-style%3A%20normal%3B%20font-variant-ligatures%3A%20normal%3B%20font-variant-caps%3A%20normal%3B%20font-weight%3A%20400%3B%20letter-spacing%3A% 20normal%3B%20orphans%3A%202%3B%20text-align%3A%20start%3B%20text-indent%3A%200px%3B%20text-transform%3A%20none%3B%20widows%3A%202%3B%20word-spacing%3A%200px%3B%20-webkit-text-stroke-width%3A%200px%3B%20background-color%3A%20rgb(251%2C%20251%2C%20251)%3B%20text-decoration-thickness%3A%20initial%3B%20text-decoration-style%3A%20initial%3B%20text-decoration-color%3A%20initial%3B%20float%3A%20none%3B%20display%3A%20inline%20! important%3B%26quot%3B%26gt%3B%253CmxGraphModel%253E%253Croot%253E%253CmxCell%2520id%253D%25220%2522%252F%253E%253CmxCell%2520id%253D%25221%2522%2520parent%253D%25220%2522%252F%253E%253CmxCell%2520id%253D%25222%2522%2520value%253D%2522%2522%2520style%253D%2522endArrow%253Dnone%253Bhtml%253D1D3%253Brounded%250D3%2522B%2520%253edge%25221D%2522%2520%253parent%25221D%2522%253%253E%2520CmxGeometry%253width%252250D%2522%2520%253height%252250D%2522%2520% 253relative%25221D%2522%2520%253as%2522D%2522geometry%253%253E%2520CmxPoint%253x%2522D%25540-22%2520%253y%2522170D%25%2022%2520%253as%2522D%2522sourcePoint%252%253F%253E%2520CmxPoint%253x%2522D%25540-22%2520%253y%2522140D%2522%2520%253as%2522D%2522targetPoint%252%253F%253E%252C%253FmxGeometry%253E%252C%253FmxCell%253E%252C%253Froot%253E%22%20style%3D%22endArrow%3Dnone%3Bhtml%3D1%3Brounded%3D0%3B%22%20edge%3D%221%22%20parent%3D%221%22%3E% 3CmxGeometry%20width%3D%2250%22%20height%3D%2250%22%20relative%3D%221%22%20as%3D%22geometry%22%3E%3CmxPoint%20x%3D%22-540%22%20y%3D%22170%22%20as%3D%22sourcePoint%22%2F%3E%3CmxPoint%20x%3D%22-540%22%20y%3D%22140%22%20as%3D%22targetPoint%22%2F%3E%3C%2FmxGeometry%3E%3C%2FmxCell%3E%3C%2Froot%3E%3C%2FmxGraphModel%3E" style="endArrow=none;html=1;rounded=0;" edge="1" parent="1">
          <mxGeometry width="50" height="50" relative="1" as="geometry">
            <mxPoint x="-70.5" y="150" as="sourcePoint" />
            <mxPoint x="-70.5" y="120" as="targetPoint" />
          </mxGeometry>
        </mxCell>
        <mxCell id="ulOZlzncEij44m-0XtQn-2346" value="&#xa;&lt;span style=&quot;color: rgba(0, 0, 0, 0); font-family: monospace; font-size: 0px; font-style: normal; font-variant-ligatures: normal; font-variant-caps: normal; font-weight: 400; letter-spacing: normal; orphans: 2; text-align: start; text-indent: 0px; text-transform: none; widows: 2; word-spacing: 0px; -webkit-text-stroke-width: 0px; background-color: rgb(251, 251, 251); text-decoration-thickness: initial; text-decoration-style: initial; text-decoration-color: initial; float: none; display: inline !important;&quot;&gt;%3CmxGraphModel%3E%3Croot%3E%3CmxCell%20id%3D%220%22%2F%3E%3CmxCell%20id%3D%221%22%20parent%3D%220%22%2F%3E%3CmxCell%20id%3D%222%22%20value%3D%22%26%2310%3B%26lt%3Bspan%20style%3D%26quot%3Bcolor%3A%20rgba(0%2C%200%2C%200%2C%200)%3B%20font-family%3A%20monospace%3B%20font-size%3A%200px%3B%20font-style%3A%20normal%3B%20font-variant-ligatures%3A%20normal%3B%20font-variant-caps%3A%20normal%3B%20font-weight%3A%20400%3B%20letter-spacing%3A% 20normal%3B%20orphans%3A%202%3B%20text-align%3A%20start%3B%20text-indent%3A%200px%3B%20text-transform%3A%20none%3B%20widows%3A%202%3B%20word-spacing%3A%200px%3B%20-webkit-text-stroke-width%3A%200px%3B%20background-color%3A%20rgb(251%2C%20251%2C%20251)%3B%20text-decoration-thickness%3A%20initial%3B%20text-decoration-style%3A%20initial%3B%20text-decoration-color%3A%20initial%3B%20float%3A%20none%3B%20display%3A%20inline%20! important%3B%26quot%3B%26gt%3B%253CmxGraphModel%253E%253Croot%253E%253CmxCell%2520id%253D%25220%2522%252F%253E%253CmxCell%2520id%253D%25221%2522%2520parent%253D%25220%2522%252F%253E%253CmxCell%2520id%253D%25222%2522%2520value%253D%2522%2522%2520style%253D%2522endArrow%253Dnone%253Bhtml%253D1D3%253Brounded%250D3%2522B%2520%253edge%25221D%2522%2520%253parent%25221D%2522%253%253E%2520CmxGeometry%253width%252250D%2522%2520%253height%252250D%2522%2520% 253relative%25221D%2522%2520%253as%2522D%2522geometry%253%253E%2520CmxPoint%253x%2522D%25540-22%2520%253y%2522170D%25%2022%2520%253as%2522D%2522sourcePoint%252%253F%253E%2520CmxPoint%253x%2522D%25540-22%2520%253y%2522140D%2522%2520%253as%2522D%2522targetPoint%252%253F%253E%252C%253FmxGeometry%253E%252C%253FmxCell%253E%252C%253Froot%253E%22%20style%3D%22endArrow%3Dnone%3Bhtml%3D1%3Brounded%3D0%3B%22%20edge%3D%221%22%20parent%3D%221%22%3E% 3CmxGeometry%20width%3D%2250%22%20height%3D%2250%22%20relative%3D%221%22%20as%3D%22geometry%22%3E%3CmxPoint%20x%3D%22-540%22%20y%3D%22170%22%20as%3D%22sourcePoint%22%2F%3E%3CmxPoint%20x%3D%22-540%22%20y%3D%22140%22%20as%3D%22targetPoint%22%2F%3E%3C%2FmxGeometry%3E%3C%2FmxCell%3E%3C%2Froot%3E%3C%2FmxGraphModel%3E" style="endArrow=none;html=1;rounded=0;" edge="1" parent="1">
          <mxGeometry width="50" height="50" relative="1" as="geometry">
            <mxPoint x="-180.5" y="150" as="sourcePoint" />
            <mxPoint x="-180.5" y="120" as="targetPoint" />
          </mxGeometry>
        </mxCell>
        <mxCell id="ulOZlzncEij44m-0XtQn-2347" value="&#xa;&lt;span style=&quot;color: rgba(0, 0, 0, 0); font-family: monospace; font-size: 0px; font-style: normal; font-variant-ligatures: normal; font-variant-caps: normal; font-weight: 400; letter-spacing: normal; orphans: 2; text-align: start; text-indent: 0px; text-transform: none; widows: 2; word-spacing: 0px; -webkit-text-stroke-width: 0px; background-color: rgb(251, 251, 251); text-decoration-thickness: initial; text-decoration-style: initial; text-decoration-color: initial; float: none; display: inline !important;&quot;&gt;%3CmxGraphModel%3E%3Croot%3E%3CmxCell%20id%3D%220%22%2F%3E%3CmxCell%20id%3D%221%22%20parent%3D%220%22%2F%3E%3CmxCell%20id%3D%222%22%20value%3D%22%26%2310%3B%26lt%3Bspan%20style%3D%26quot%3Bcolor%3A%20rgba(0%2C%200%2C%200%2C%200)%3B%20font-family%3A%20monospace%3B%20font-size%3A%200px%3B%20font-style%3A%20normal%3B%20font-variant-ligatures%3A%20normal%3B%20font-variant-caps%3A%20normal%3B%20font-weight%3A%20400%3B%20letter-spacing%3A% 20normal%3B%20orphans%3A%202%3B%20text-align%3A%20start%3B%20text-indent%3A%200px%3B%20text-transform%3A%20none%3B%20widows%3A%202%3B%20word-spacing%3A%200px%3B%20-webkit-text-stroke-width%3A%200px%3B%20background-color%3A%20rgb(251%2C%20251%2C%20251)%3B%20text-decoration-thickness%3A%20initial%3B%20text-decoration-style%3A%20initial%3B%20text-decoration-color%3A%20initial%3B%20float%3A%20none%3B%20display%3A%20inline%20! important%3B%26quot%3B%26gt%3B%253CmxGraphModel%253E%253Croot%253E%253CmxCell%2520id%253D%25220%2522%252F%253E%253CmxCell%2520id%253D%25221%2522%2520parent%253D%25220%2522%252F%253E%253CmxCell%2520id%253D%25222%2522%2520value%253D%2522%2522%2520style%253D%2522endArrow%253Dnone%253Bhtml%253D1D3%253Brounded%250D3%2522B%2520%253edge%25221D%2522%2520%253parent%25221D%2522%253%253E%2520CmxGeometry%253width%252250D%2522%2520%253height%252250D%2522%2520% 253relative%25221D%2522%2520%253as%2522D%2522geometry%253%253E%2520CmxPoint%253x%2522D%25540-22%2520%253y%2522170D%25%2022%2520%253as%2522D%2522sourcePoint%252%253F%253E%2520CmxPoint%253x%2522D%25540-22%2520%253y%2522140D%2522%2520%253as%2522D%2522targetPoint%252%253F%253E%252C%253FmxGeometry%253E%252C%253FmxCell%253E%252C%253Froot%253E%22%20style%3D%22endArrow%3Dnone%3Bhtml%3D1%3Brounded%3D0%3B%22%20edge%3D%221%22%20parent%3D%221%22%3E% 3CmxGeometry%20width%3D%2250%22%20height%3D%2250%22%20relative%3D%221%22%20as%3D%22geometry%22%3E%3CmxPoint%20x%3D%22-540%22%20y%3D%22170%22%20as%3D%22sourcePoint%22%2F%3E%3CmxPoint%20x%3D%22-540%22%20y%3D%22140%22%20as%3D%22targetPoint%22%2F%3E%3C%2FmxGeometry%3E%3C%2FmxCell%3E%3C%2Froot%3E%3C%2FmxGraphModel%3E" style="endArrow=none;html=1;rounded=0;" edge="1" parent="1">
          <mxGeometry width="50" height="50" relative="1" as="geometry">
            <mxPoint x="-290.5" y="150" as="sourcePoint" />
            <mxPoint x="-290.5" y="120" as="targetPoint" />
          </mxGeometry>
        </mxCell>
        <mxCell id="ulOZlzncEij44m-0XtQn-2348" value="&#xa;&lt;span style=&quot;color: rgba(0, 0, 0, 0); font-family: monospace; font-size: 0px; font-style: normal; font-variant-ligatures: normal; font-variant-caps: normal; font-weight: 400; letter-spacing: normal; orphans: 2; text-align: start; text-indent: 0px; text-transform: none; widows: 2; word-spacing: 0px; -webkit-text-stroke-width: 0px; background-color: rgb(251, 251, 251); text-decoration-thickness: initial; text-decoration-style: initial; text-decoration-color: initial; float: none; display: inline !important;&quot;&gt;%3CmxGraphModel%3E%3Croot%3E%3CmxCell%20id%3D%220%22%2F%3E%3CmxCell%20id%3D%221%22%20parent%3D%220%22%2F%3E%3CmxCell%20id%3D%222%22%20value%3D%22%26%2310%3B%26lt%3Bspan%20style%3D%26quot%3Bcolor%3A%20rgba(0%2C%200%2C%200%2C%200)%3B%20font-family%3A%20monospace%3B%20font-size%3A%200px%3B%20font-style%3A%20normal%3B%20font-variant-ligatures%3A%20normal%3B%20font-variant-caps%3A%20normal%3B%20font-weight%3A%20400%3B%20letter-spacing%3A% 20normal%3B%20orphans%3A%202%3B%20text-align%3A%20start%3B%20text-indent%3A%200px%3B%20text-transform%3A%20none%3B%20widows%3A%202%3B%20word-spacing%3A%200px%3B%20-webkit-text-stroke-width%3A%200px%3B%20background-color%3A%20rgb(251%2C%20251%2C%20251)%3B%20text-decoration-thickness%3A%20initial%3B%20text-decoration-style%3A%20initial%3B%20text-decoration-color%3A%20initial%3B%20float%3A%20none%3B%20display%3A%20inline%20! important%3B%26quot%3B%26gt%3B%253CmxGraphModel%253E%253Croot%253E%253CmxCell%2520id%253D%25220%2522%252F%253E%253CmxCell%2520id%253D%25221%2522%2520parent%253D%25220%2522%252F%253E%253CmxCell%2520id%253D%25222%2522%2520value%253D%2522%2522%2520style%253D%2522endArrow%253Dnone%253Bhtml%253D1D3%253Brounded%250D3%2522B%2520%253edge%25221D%2522%2520%253parent%25221D%2522%253%253E%2520CmxGeometry%253width%252250D%2522%2520%253height%252250D%2522%2520% 253relative%25221D%2522%2520%253as%2522D%2522geometry%253%253E%2520CmxPoint%253x%2522D%25540-22%2520%253y%2522170D%25%2022%2520%253as%2522D%2522sourcePoint%252%253F%253E%2520CmxPoint%253x%2522D%25540-22%2520%253y%2522140D%2522%2520%253as%2522D%2522targetPoint%252%253F%253E%252C%253FmxGeometry%253E%252C%253FmxCell%253E%252C%253Froot%253E%22%20style%3D%22endArrow%3Dnone%3Bhtml%3D1%3Brounded%3D0%3B%22%20edge%3D%221%22%20parent%3D%221%22%3E% 3CmxGeometry%20width%3D%2250%22%20height%3D%2250%22%20relative%3D%221%22%20as%3D%22geometry%22%3E%3CmxPoint%20x%3D%22-540%22%20y%3D%22170%22%20as%3D%22sourcePoint%22%2F%3E%3CmxPoint%20x%3D%22-540%22%20y%3D%22140%22%20as%3D%22targetPoint%22%2F%3E%3C%2FmxGeometry%3E%3C%2FmxCell%3E%3C%2Froot%3E%3C%2FmxGraphModel%3E" style="endArrow=none;html=1;rounded=0;" edge="1" parent="1">
          <mxGeometry width="50" height="50" relative="1" as="geometry">
            <mxPoint x="-400.5" y="150" as="sourcePoint" />
            <mxPoint x="-400.5" y="120" as="targetPoint" />
          </mxGeometry>
        </mxCell>
        <mxCell id="ulOZlzncEij44m-0XtQn-2349" value="" style="shape=mxgraph.cisco.routers.router;sketch=0;html=1;pointerEvents=1;dashed=0;fillColor=#036897;strokeColor=#ffffff;strokeWidth=2;verticalLabelPosition=bottom;verticalAlign=top;align=center;outlineConnect=0;" vertex="1" parent="1">
          <mxGeometry x="470" y="630" width="90" height="60" as="geometry" />
        </mxCell>
        <mxCell id="ulOZlzncEij44m-0XtQn-2350" value="&lt;b&gt;&lt;font style=&quot;font-size: 20px;&quot;&gt;LAN&lt;/font&gt;&lt;/b&gt;" style="text;html=1;align=center;verticalAlign=middle;resizable=0;points=[];autosize=1;strokeColor=none;fillColor=none;rotation=270;" vertex="1" parent="1">
          <mxGeometry x="475" y="93" width="60" height="40" as="geometry" />
        </mxCell>
        <mxCell id="ulOZlzncEij44m-0XtQn-2351" value="Routeur" style="text;html=1;align=center;verticalAlign=middle;resizable=0;points=[];autosize=1;strokeColor=none;fillColor=none;" vertex="1" parent="1">
          <mxGeometry x="480" y="685" width="70" height="30" as="geometry" />
        </mxCell>
        <mxCell id="ulOZlzncEij44m-0XtQn-2352" value="&#xa;&lt;span style=&quot;color: rgba(0, 0, 0, 0); font-family: monospace; font-size: 0px; font-style: normal; font-variant-ligatures: normal; font-variant-caps: normal; font-weight: 400; letter-spacing: normal; orphans: 2; text-align: start; text-indent: 0px; text-transform: none; widows: 2; word-spacing: 0px; -webkit-text-stroke-width: 0px; background-color: rgb(251, 251, 251); text-decoration-thickness: initial; text-decoration-style: initial; text-decoration-color: initial; float: none; display: inline !important;&quot;&gt;%3CmxGraphModel%3E%3Croot%3E%3CmxCell%20id%3D%220%22%2F%3E%3CmxCell%20id%3D%221%22%20parent%3D%220%22%2F%3E%3CmxCell%20id%3D%222%22%20value%3D%22%26%2310%3B%26lt%3Bspan%20style%3D%26quot%3Bcolor%3A%20rgba(0%2C%200%2C%200%2C%200)%3B%20font-family%3A%20monospace%3B%20font-size%3A%200px%3B%20font-style%3A%20normal%3B%20font-variant-ligatures%3A%20normal%3B%20font-variant-caps%3A%20normal%3B%20font-weight%3A%20400%3B%20letter-spacing%3A% 20normal%3B%20orphans%3A%202%3B%20text-align%3A%20start%3B%20text-indent%3A%200px%3B%20text-transform%3A%20none%3B%20widows%3A%202%3B%20word-spacing%3A%200px%3B%20-webkit-text-stroke-width%3A%200px%3B%20background-color%3A%20rgb(251%2C%20251%2C%20251)%3B%20text-decoration-thickness%3A%20initial%3B%20text-decoration-style%3A%20initial%3B%20text-decoration-color%3A%20initial%3B%20float%3A%20none%3B%20display%3A%20inline%20! important%3B%26quot%3B%26gt%3B%253CmxGraphModel%253E%253Croot%253E%253CmxCell%2520id%253D%25220%2522%252F%253E%253CmxCell%2520id%253D%25221%2522%2520parent%253D%25220%2522%252F%253E%253CmxCell%2520id%253D%25222%2522%2520id%253%2522id%2526value%252310D%253%2526%253%2520B%253lt%2526Bspan%253style%253D%2520quot%0Bcolor%252A%25200rgba(252%25200C%252%25200C%253%2520C%253)%2520B%253font-family%2520A%253monospace%25200B%253font-size%2520A%253px%2520B%253font-style%2520A% 253normal%2520B%253font-variant-ligatures%2520A%253normal%2520B%253font-variant-caps%2520A%253normal%2520400B%253font-weight%2520A%253%25B%2020letter-spacing%253A%2520%253normal%25202B%253orphans%2520A%253%2520B%253text-align%2520A; 253A %25200start%253B%2520text-indent%253A%2520px%253B%2520text-transform%253A%25202none%253B%2520widows%253A%25200%253B%2520word-spacing%253A%25200px%253B%2520-webkit-text-stroke-width%253A%2520px%251B%252background-color% 2520251A%252rgb(2520251%253C%2520%253C%2520)%253B%2520text-decoration-thickness%253A%2520initial%253B%2520text-decoration-style%253A%2520initial%253B%2520text-decoration-color%253A%2520initial%253B%2520float%253A%2520none%2520B%20display%253A%2526inline%253! %2526important%253B%25253quot%25253B%25253gt%25253B%25253CmxGraphModel%252520E%25253Croot%2525220E%252522CmxCell%25252id%25253D%25253%252520%25253F%2525221E%252522CmxCell%252520id%25253D%2525220%252522%25252parent%25253D%25253%252520D% %25253%2525222F%252522E%252520CmxCell%25253id%252522D%252522%252520%25253value%252522D%25253%25253%1style%25253D%2520image%25253Bhtml%25252D25252%25252Bimage%25252%128Dimg%128Flib%20Fclip_art%252522Fnetworking%252520FSwitch_ 25253x2525221. %252522png%252520%25253vertex%2525221D%252522%25253%25253parent%252520D%25253%252522270%252522E%252520CmxGeometry%25253x%252522308D%252522%252520%25253y%252522130D%252522%252520%25253width%25252280D%252522%252520%26height%3D%3D%253D%26D%3D%3D%2522D%26D%3D%3D%2522%26D%3D%3D%25D%26d%3d%3d%202d%26d%3d%3d%253d%25253d%25252&amp;amp;25253D%25253%26D%3D%3D%252D%25253D%25253D%26D%3D%3D%252D%25253D%2522D%2520D%26D%3D%3&amp;amp;3D%2522D%253D%26height%3D%3%3amp%251Bamp%253B26%3amp%3Bamp%3B252%26amp%3Bamp%3B2%26amp%3Bamp%3B2d%252amp%25128Bamp%25128B2522d%2520amp%253Bamp%25221B2522width%2520%253d%25221d%2522d%253amp%253Bamp%2520B253height%22D%20%3amp%22Bamp% 3B3width%1d%3height%3%2amp%2Bamp%2B2height%128D%128%22amp%20Bamp%3B221height%22D%20%3amp%221Bamp%22B3height%3%20amp%3Bamp%2290B22%20amp%3Bamp%22370B22height%20D%3%2290%22%20%3%2280%22%20%3%22%22as%2D%3geometry%3%2%3F%3E%2C%3FmxCell%3E" style="image;html=1;image=img/lib/clip_art/networking/Switch_128x128.png" vertex="1" parent="1">
          <mxGeometry x="870" y="310" width="90" height="80" as="geometry" />
        </mxCell>
        <mxCell id="ulOZlzncEij44m-0XtQn-2353" value="" style="endArrow=none;html=1;rounded=0;entryX=0.333;entryY=0.75;entryDx=0;entryDy=0;entryPerimeter=0;" edge="1" parent="1" source="ulOZlzncEij44m-0XtQn-2264" target="ulOZlzncEij44m-0XtQn-2352">
          <mxGeometry width="50" height="50" relative="1" as="geometry">
            <mxPoint x="850" y="438" as="sourcePoint" />
            <mxPoint x="900" y="388" as="targetPoint" />
            <Array as="points">
              <mxPoint x="900" y="540" />
            </Array>
          </mxGeometry>
        </mxCell>
        <mxCell id="ulOZlzncEij44m-0XtQn-2354" value="" style="endArrow=none;html=1;rounded=0;" edge="1" parent="1" source="ulOZlzncEij44m-0XtQn-2260">
          <mxGeometry width="50" height="50" relative="1" as="geometry">
            <mxPoint x="830" y="420" as="sourcePoint" />
            <mxPoint x="880" y="370" as="targetPoint" />
            <Array as="points">
              <mxPoint x="880" y="406" />
            </Array>
          </mxGeometry>
        </mxCell>
        <mxCell id="ulOZlzncEij44m-0XtQn-2355" value="" style="endArrow=none;html=1;rounded=0;entryX=0;entryY=0.5;entryDx=0;entryDy=0;exitX=1;exitY=0.5;exitDx=0;exitDy=0;exitPerimeter=0;" edge="1" parent="1" source="ulOZlzncEij44m-0XtQn-2259" target="ulOZlzncEij44m-0XtQn-2352">
          <mxGeometry width="50" height="50" relative="1" as="geometry">
            <mxPoint x="760" y="300" as="sourcePoint" />
            <mxPoint x="810" y="250" as="targetPoint" />
          </mxGeometry>
        </mxCell>
        <mxCell id="ulOZlzncEij44m-0XtQn-2356" value="" style="endArrow=none;html=1;rounded=0;entryX=0;entryY=0.5;entryDx=0;entryDy=0;exitX=1;exitY=0.5;exitDx=0;exitDy=0;exitPerimeter=0;" edge="1" parent="1" source="ulOZlzncEij44m-0XtQn-2258">
          <mxGeometry width="50" height="50" relative="1" as="geometry">
            <mxPoint x="731.5" y="260" as="sourcePoint" />
            <mxPoint x="898.5" y="331" as="targetPoint" />
            <Array as="points">
              <mxPoint x="900" y="150" />
            </Array>
          </mxGeometry>
        </mxCell>
        <mxCell id="ulOZlzncEij44m-0XtQn-2357" value="" style="shape=image;html=1;verticalAlign=top;verticalLabelPosition=bottom;labelBackgroundColor=#ffffff;imageAspect=0;aspect=fixed;image=https://cdn1.iconfinder.com/data/icons/nuvola2/128x128/devices/raid.png" vertex="1" parent="1">
          <mxGeometry x="1070" y="182" width="80" height="80" as="geometry" />
        </mxCell>
        <mxCell id="ulOZlzncEij44m-0XtQn-2358" value="" style="shape=image;html=1;verticalAlign=top;verticalLabelPosition=bottom;labelBackgroundColor=#ffffff;imageAspect=0;aspect=fixed;image=https://cdn1.iconfinder.com/data/icons/nuvola2/128x128/devices/raid.png" vertex="1" parent="1">
          <mxGeometry x="1070" y="320" width="80" height="80" as="geometry" />
        </mxCell>
        <mxCell id="ulOZlzncEij44m-0XtQn-2359" value="" style="shape=image;html=1;verticalAlign=top;verticalLabelPosition=bottom;labelBackgroundColor=#ffffff;imageAspect=0;aspect=fixed;image=https://cdn1.iconfinder.com/data/icons/nuvola2/128x128/devices/raid.png" vertex="1" parent="1">
          <mxGeometry x="1070" y="455" width="80" height="80" as="geometry" />
        </mxCell>
        <mxCell id="ulOZlzncEij44m-0XtQn-2360" value="RAID 1" style="text;html=1;align=center;verticalAlign=middle;resizable=0;points=[];autosize=1;strokeColor=none;fillColor=none;" vertex="1" parent="1">
          <mxGeometry x="1080" y="255" width="60" height="30" as="geometry" />
        </mxCell>
        <mxCell id="ulOZlzncEij44m-0XtQn-2361" value="RAID 5" style="text;html=1;align=center;verticalAlign=middle;resizable=0;points=[];autosize=1;strokeColor=none;fillColor=none;" vertex="1" parent="1">
          <mxGeometry x="1080" y="395" width="60" height="30" as="geometry" />
        </mxCell>
        <mxCell id="ulOZlzncEij44m-0XtQn-2362" value="RAID 10" style="text;html=1;align=center;verticalAlign=middle;resizable=0;points=[];autosize=1;strokeColor=none;fillColor=none;" vertex="1" parent="1">
          <mxGeometry x="1075" y="530" width="70" height="30" as="geometry" />
        </mxCell>
        <mxCell id="ulOZlzncEij44m-0XtQn-2363" value="" style="endArrow=none;html=1;rounded=0;exitX=0.889;exitY=0.625;exitDx=0;exitDy=0;exitPerimeter=0;" edge="1" parent="1" source="ulOZlzncEij44m-0XtQn-2352">
          <mxGeometry width="50" height="50" relative="1" as="geometry">
            <mxPoint x="940" y="510" as="sourcePoint" />
            <mxPoint x="1080" y="510" as="targetPoint" />
            <Array as="points">
              <mxPoint x="949" y="510" />
            </Array>
          </mxGeometry>
        </mxCell>
        <mxCell id="ulOZlzncEij44m-0XtQn-2364" value="" style="endArrow=none;html=1;rounded=0;exitX=1;exitY=0.5;exitDx=0;exitDy=0;" edge="1" parent="1" source="ulOZlzncEij44m-0XtQn-2352">
          <mxGeometry width="50" height="50" relative="1" as="geometry">
            <mxPoint x="1030" y="390" as="sourcePoint" />
            <mxPoint x="1080" y="350" as="targetPoint" />
          </mxGeometry>
        </mxCell>
        <mxCell id="ulOZlzncEij44m-0XtQn-2365" value="" style="endArrow=none;html=1;rounded=0;exitX=0.889;exitY=0.5;exitDx=0;exitDy=0;exitPerimeter=0;" edge="1" parent="1" source="ulOZlzncEij44m-0XtQn-2352">
          <mxGeometry width="50" height="50" relative="1" as="geometry">
            <mxPoint x="1030" y="260" as="sourcePoint" />
            <mxPoint x="1080" y="210" as="targetPoint" />
            <Array as="points">
              <mxPoint x="950" y="210" />
            </Array>
          </mxGeometry>
        </mxCell>
      </root>
    </mxGraphModel>
  </diagram>
</mxfile>
